<?xml version="1.0" encoding="UTF-8" standalone="no"?>
<svg
   width="2434.252"
   height="239.705"
   viewBox="0 0 2434.252 239.70499"
   version="1.2"
   id="svg168"
   sodipodi:docname="punchis-punchis.svg"
   inkscape:version="1.1 (c68e22c387, 2021-05-23)"
   xmlns:inkscape="http://www.inkscape.org/namespaces/inkscape"
   xmlns:sodipodi="http://sodipodi.sourceforge.net/DTD/sodipodi-0.dtd"
   xmlns="http://www.w3.org/2000/svg"
   xmlns:svg="http://www.w3.org/2000/svg"
   xmlns:rdf="http://www.w3.org/1999/02/22-rdf-syntax-ns#"
   xmlns:cc="http://creativecommons.org/ns#"
   xmlns:dc="http://purl.org/dc/elements/1.1/">
  <defs
     id="defs172" />
  <sodipodi:namedview
     id="namedview170"
     pagecolor="#ffffff"
     bordercolor="#666666"
     borderopacity="1.0"
     inkscape:pageshadow="2"
     inkscape:pageopacity="0.0"
     inkscape:pagecheckerboard="0"
     showgrid="false"
     fit-margin-top="0"
     fit-margin-left="0"
     fit-margin-right="0"
     fit-margin-bottom="0"
     inkscape:zoom="0.20715294"
     inkscape:cx="1160.9779"
     inkscape:cy="654.10608"
     inkscape:window-width="1920"
     inkscape:window-height="1057"
     inkscape:window-x="-8"
     inkscape:window-y="-8"
     inkscape:window-maximized="1"
     inkscape:current-layer="svg168" />
  <title
     id="title2">Sin título-2</title>
  <desc
     id="desc4">Generated by MuseScore 3.6.2</desc>
  <polyline
     class="StaffLines"
     fill="none"
     stroke="#000000"
     stroke-width="2.57"
     stroke-linejoin="bevel"
     points="329.528,376.299 2763.78,376.299"
     id="polyline6"
     transform="translate(-329.528,-294.449)" />
  <polyline
     class="StaffLines"
     fill="none"
     stroke="#000000"
     stroke-width="2.57"
     stroke-linejoin="bevel"
     points="329.528,399.685 2763.78,399.685"
     id="polyline8"
     transform="translate(-329.528,-294.449)" />
  <polyline
     class="StaffLines"
     fill="none"
     stroke="#000000"
     stroke-width="2.57"
     stroke-linejoin="bevel"
     points="329.528,423.071 2763.78,423.071"
     id="polyline10"
     transform="translate(-329.528,-294.449)" />
  <polyline
     class="StaffLines"
     fill="none"
     stroke="#000000"
     stroke-width="2.57"
     stroke-linejoin="bevel"
     points="329.528,446.457 2763.78,446.457"
     id="polyline12"
     transform="translate(-329.528,-294.449)" />
  <polyline
     class="StaffLines"
     fill="none"
     stroke="#000000"
     stroke-width="2.57"
     stroke-linejoin="bevel"
     points="329.528,469.843 2763.78,469.843"
     id="polyline14"
     transform="translate(-329.528,-294.449)" />
  <polyline
     class="BarLine"
     fill="none"
     stroke="#000000"
     stroke-width="12.86"
     stroke-linejoin="bevel"
     points="462.724,375.013 462.724,471.129"
     id="polyline16"
     transform="translate(-329.528,-294.449)" />
  <polyline
     class="BarLine"
     fill="none"
     stroke="#000000"
     stroke-width="4.21"
     stroke-linejoin="bevel"
     points="479.095,375.013 479.095,471.129"
     id="polyline18"
     transform="translate(-329.528,-294.449)" />
  <path
     class="BarLine"
     d="m 170.8034,116.929 c 0,-2.7186 -2.16324,-4.95488 -4.86722,-4.95488 -2.7186,0 -4.86718,2.23628 -4.86718,4.95488 0,2.7186 2.14858,4.95488 4.86718,4.95488 2.70398,0 4.86722,-2.23628 4.86722,-4.95488"
     id="path20"
     style="stroke-width:0.935433" />
  <path
     class="BarLine"
     d="m 170.8034,140.315 c 0,-2.7186 -2.16324,-4.95488 -4.86722,-4.95488 -2.7186,0 -4.86718,2.23628 -4.86718,4.95488 0,2.7186 2.14858,4.95488 4.86718,4.95488 2.70398,0 4.86722,-2.23628 4.86722,-4.95488"
     id="path22"
     style="stroke-width:0.935433" />
  <polyline
     class="BarLine"
     fill="none"
     stroke="#000000"
     stroke-width="4.21"
     stroke-linejoin="bevel"
     points="1624.07,375.013 1624.07,471.129"
     id="polyline24"
     transform="translate(-329.528,-294.449)" />
  <path
     class="BarLine"
     d="m 2399.6164,116.929 c 0,-2.7186 -2.1632,-4.95488 -4.8672,-4.95488 -2.7186,0 -4.8672,2.23628 -4.8672,4.95488 0,2.7186 2.1486,4.95488 4.8672,4.95488 2.704,0 4.8672,-2.23628 4.8672,-4.95488"
     id="path26"
     style="stroke-width:0.935433" />
  <path
     class="BarLine"
     d="m 2399.6164,140.315 c 0,-2.7186 -2.1632,-4.95488 -4.8672,-4.95488 -2.7186,0 -4.8672,2.23628 -4.8672,4.95488 0,2.7186 2.1486,4.95488 4.8672,4.95488 2.704,0 4.8672,-2.23628 4.8672,-4.95488"
     id="path28"
     style="stroke-width:0.935433" />
  <polyline
     class="BarLine"
     fill="none"
     stroke="#000000"
     stroke-width="4.21"
     stroke-linejoin="bevel"
     points="2740.64,375.013 2740.64,471.129"
     id="polyline30"
     transform="translate(-329.528,-294.449)" />
  <polyline
     class="BarLine"
     fill="none"
     stroke="#000000"
     stroke-width="12.86"
     stroke-linejoin="bevel"
     points="2757.01,375.013 2757.01,471.129"
     id="polyline32"
     transform="translate(-329.528,-294.449)" />
  <polyline
     class="Stem"
     fill="none"
     stroke="#000000"
     stroke-width="2.57"
     stroke-linejoin="bevel"
     points="560.415,461.293 560.415,522.461"
     id="polyline34"
     transform="translate(-329.528,-294.449)" />
  <polyline
     class="Stem"
     fill="none"
     stroke="#000000"
     stroke-width="2.57"
     stroke-linejoin="bevel"
     points="826.123,414.521 826.123,522.461"
     id="polyline36"
     transform="translate(-329.528,-294.449)" />
  <polyline
     class="Stem"
     fill="none"
     stroke="#000000"
     stroke-width="2.57"
     stroke-linejoin="bevel"
     points="1091.83,461.293 1091.83,522.461"
     id="polyline38"
     transform="translate(-329.528,-294.449)" />
  <polyline
     class="Stem"
     fill="none"
     stroke="#000000"
     stroke-width="2.57"
     stroke-linejoin="bevel"
     points="1357.54,414.521 1357.54,528.307"
     id="polyline40"
     transform="translate(-329.528,-294.449)" />
  <polyline
     class="Stem"
     fill="none"
     stroke="#000000"
     stroke-width="2.57"
     stroke-linejoin="bevel"
     points="1490.4,461.293 1490.4,528.307"
     id="polyline42"
     transform="translate(-329.528,-294.449)" />
  <polyline
     class="Stem"
     fill="none"
     stroke="#000000"
     stroke-width="2.57"
     stroke-linejoin="bevel"
     points="1657.86,461.293 1657.86,522.461"
     id="polyline44"
     transform="translate(-329.528,-294.449)" />
  <polyline
     class="Stem"
     fill="none"
     stroke="#000000"
     stroke-width="2.57"
     stroke-linejoin="bevel"
     points="1923.57,414.521 1923.57,522.461"
     id="polyline46"
     transform="translate(-329.528,-294.449)" />
  <polyline
     class="Stem"
     fill="none"
     stroke="#000000"
     stroke-width="2.57"
     stroke-linejoin="bevel"
     points="2189.28,461.293 2189.28,522.461"
     id="polyline48"
     transform="translate(-329.528,-294.449)" />
  <polyline
     class="Stem"
     fill="none"
     stroke="#000000"
     stroke-width="2.57"
     stroke-linejoin="bevel"
     points="2322.13,414.521 2322.13,522.461"
     id="polyline50"
     transform="translate(-329.528,-294.449)" />
  <polyline
     class="Stem"
     fill="none"
     stroke="#000000"
     stroke-width="2.57"
     stroke-linejoin="bevel"
     points="2454.99,414.521 2454.99,522.461"
     id="polyline52"
     transform="translate(-329.528,-294.449)" />
  <polyline
     class="Stem"
     fill="none"
     stroke="#000000"
     stroke-width="2.57"
     stroke-linejoin="bevel"
     points="2587.84,461.293 2587.84,522.461"
     id="polyline54"
     transform="translate(-329.528,-294.449)" />
  <polyline
     class="Stem"
     fill="none"
     stroke="#000000"
     stroke-width="2.57"
     stroke-linejoin="bevel"
     points="588.236,356.674 588.236,300.295"
     id="polyline56"
     transform="translate(-329.528,-294.449)" />
  <polyline
     class="Stem"
     fill="none"
     stroke="#000000"
     stroke-width="2.57"
     stroke-linejoin="bevel"
     points="721.091,356.674 721.091,300.295"
     id="polyline58"
     transform="translate(-329.528,-294.449)" />
  <polyline
     class="Stem"
     fill="none"
     stroke="#000000"
     stroke-width="2.57"
     stroke-linejoin="bevel"
     points="853.945,356.674 853.945,300.295"
     id="polyline60"
     transform="translate(-329.528,-294.449)" />
  <polyline
     class="Stem"
     fill="none"
     stroke="#000000"
     stroke-width="2.57"
     stroke-linejoin="bevel"
     points="986.8,356.674 986.8,300.295"
     id="polyline62"
     transform="translate(-329.528,-294.449)" />
  <polyline
     class="Stem"
     fill="none"
     stroke="#000000"
     stroke-width="2.57"
     stroke-linejoin="bevel"
     points="1119.65,356.674 1119.65,300.295"
     id="polyline64"
     transform="translate(-329.528,-294.449)" />
  <polyline
     class="Stem"
     fill="none"
     stroke="#000000"
     stroke-width="2.57"
     stroke-linejoin="bevel"
     points="1252.51,356.674 1252.51,300.295"
     id="polyline66"
     transform="translate(-329.528,-294.449)" />
  <polyline
     class="Stem"
     fill="none"
     stroke="#000000"
     stroke-width="2.57"
     stroke-linejoin="bevel"
     points="1385.36,356.674 1385.36,300.295"
     id="polyline68"
     transform="translate(-329.528,-294.449)" />
  <polyline
     class="Stem"
     fill="none"
     stroke="#000000"
     stroke-width="2.57"
     stroke-linejoin="bevel"
     points="1518.22,356.674 1518.22,300.295"
     id="polyline70"
     transform="translate(-329.528,-294.449)" />
  <polyline
     class="Stem"
     fill="none"
     stroke="#000000"
     stroke-width="2.57"
     stroke-linejoin="bevel"
     points="1685.68,356.674 1685.68,300.295"
     id="polyline72"
     transform="translate(-329.528,-294.449)" />
  <polyline
     class="Stem"
     fill="none"
     stroke="#000000"
     stroke-width="2.57"
     stroke-linejoin="bevel"
     points="1818.54,356.674 1818.54,300.295"
     id="polyline74"
     transform="translate(-329.528,-294.449)" />
  <polyline
     class="Stem"
     fill="none"
     stroke="#000000"
     stroke-width="2.57"
     stroke-linejoin="bevel"
     points="1951.39,356.674 1951.39,300.295"
     id="polyline76"
     transform="translate(-329.528,-294.449)" />
  <polyline
     class="Stem"
     fill="none"
     stroke="#000000"
     stroke-width="2.57"
     stroke-linejoin="bevel"
     points="2084.25,356.674 2084.25,300.295"
     id="polyline78"
     transform="translate(-329.528,-294.449)" />
  <polyline
     class="Stem"
     fill="none"
     stroke="#000000"
     stroke-width="2.57"
     stroke-linejoin="bevel"
     points="2217.1,356.674 2217.1,300.295"
     id="polyline80"
     transform="translate(-329.528,-294.449)" />
  <polyline
     class="Stem"
     fill="none"
     stroke="#000000"
     stroke-width="2.57"
     stroke-linejoin="bevel"
     points="2349.95,356.674 2349.95,300.295"
     id="polyline82"
     transform="translate(-329.528,-294.449)" />
  <polyline
     class="Stem"
     fill="none"
     stroke="#000000"
     stroke-width="2.57"
     stroke-linejoin="bevel"
     points="2482.81,356.674 2482.81,300.295"
     id="polyline84"
     transform="translate(-329.528,-294.449)" />
  <polyline
     class="Stem"
     fill="none"
     stroke="#000000"
     stroke-width="2.57"
     stroke-linejoin="bevel"
     points="2615.66,356.674 2615.66,300.295"
     id="polyline86"
     transform="translate(-329.528,-294.449)" />
  <path
     class="Note"
     d="m 259.06614,156.12984 c -1.68088,-3.09867 -5.23253,-4.77946 -9.54432,-4.77946 -3.17168,0 -6.63577,0.93544 -10.01203,2.71856 -6.16806,3.27403 -9.90979,8.78432 -9.90979,13.56381 0,1.30083 0.27771,2.61628 0.93543,3.82943 1.68086,3.08404 5.23258,4.67718 9.54432,4.67718 3.17177,0 6.63577,-0.8331 10.01213,-2.61631 6.16796,-3.27402 9.90969,-8.79892 9.90969,-13.56378 0,-1.31545 -0.27773,-2.6163 -0.93543,-3.82943"
     id="path88"
     style="stroke-width:0.935433" />
  <path
     class="Note"
     d="m 524.77514,156.12984 c -1.68088,-3.09867 -5.23253,-4.77946 -9.54432,-4.77946 -3.17168,0 -6.63577,0.93544 -10.01203,2.71856 -6.16806,3.27403 -9.90979,8.78432 -9.90979,13.56381 0,1.30083 0.27771,2.61628 0.93543,3.82943 1.68086,3.08404 5.23258,4.67718 9.54432,4.67718 3.17177,0 6.63577,-0.8331 10.01213,-2.61631 6.16796,-3.27402 9.90969,-8.79892 9.90969,-13.56378 0,-1.31545 -0.27773,-2.6163 -0.93543,-3.82943"
     id="path90"
     style="stroke-width:0.935433" />
  <path
     class="Note"
     d="m 524.77514,109.35784 c -1.68088,-3.09867 -5.23253,-4.77946 -9.54432,-4.77946 -3.17168,0 -6.63577,0.93544 -10.01203,2.71856 -6.16806,3.27403 -9.90979,8.78432 -9.90979,13.56381 0,1.30083 0.27771,2.61628 0.93543,3.82943 1.68086,3.08404 5.23258,4.67718 9.54432,4.67718 3.17177,0 6.63577,-0.8331 10.01213,-2.61631 6.16796,-3.27402 9.90969,-8.79892 9.90969,-13.56378 0,-1.31545 -0.27773,-2.6163 -0.93543,-3.82943"
     id="path92"
     style="stroke-width:0.935433" />
  <path
     class="Note"
     d="m 790.48814,156.12984 c -1.68088,-3.09867 -5.23253,-4.77946 -9.54432,-4.77946 -3.17168,0 -6.63577,0.93544 -10.01203,2.71856 -6.16806,3.27403 -9.90979,8.78432 -9.90979,13.56381 0,1.30083 0.27771,2.61628 0.93543,3.82943 1.68086,3.08404 5.23258,4.67718 9.54432,4.67718 3.17177,0 6.63577,-0.8331 10.01213,-2.61631 6.16796,-3.27402 9.90969,-8.79892 9.90969,-13.56378 0,-1.31545 -0.27773,-2.6163 -0.93543,-3.82943"
     id="path94"
     style="stroke-width:0.935433" />
  <path
     class="Note"
     d="m 1056.1881,156.12984 c -1.6808,-3.09867 -5.2325,-4.77946 -9.5443,-4.77946 -3.1717,0 -6.6358,0.93544 -10.012,2.71856 -6.1681,3.27403 -9.9098,8.78432 -9.9098,13.56381 0,1.30083 0.2777,2.61628 0.9354,3.82943 1.6809,3.08404 5.2326,4.67718 9.5443,4.67718 3.1718,0 6.6358,-0.8331 10.0122,-2.61631 6.1679,-3.27402 9.9097,-8.79892 9.9097,-13.56378 0,-1.31545 -0.2778,-2.6163 -0.9355,-3.82943"
     id="path96"
     style="stroke-width:0.935433" />
  <path
     class="Note"
     d="m 1056.1881,109.35784 c -1.6808,-3.09867 -5.2325,-4.77946 -9.5443,-4.77946 -3.1717,0 -6.6358,0.93544 -10.012,2.71856 -6.1681,3.27403 -9.9098,8.78432 -9.9098,13.56381 0,1.30083 0.2777,2.61628 0.9354,3.82943 1.6809,3.08404 5.2326,4.67718 9.5443,4.67718 3.1718,0 6.6358,-0.8331 10.0122,-2.61631 6.1679,-3.27402 9.9097,-8.79892 9.9097,-13.56378 0,-1.31545 -0.2778,-2.6163 -0.9355,-3.82943"
     id="path98"
     style="stroke-width:0.935433" />
  <path
     class="Note"
     d="m 1189.0481,156.12984 c -1.6808,-3.09867 -5.2325,-4.77946 -9.5443,-4.77946 -3.1717,0 -6.6358,0.93544 -10.012,2.71856 -6.1681,3.27403 -9.9098,8.78432 -9.9098,13.56381 0,1.30083 0.2777,2.61628 0.9354,3.82943 1.6809,3.08404 5.2326,4.67718 9.5443,4.67718 3.1718,0 6.6358,-0.8331 10.0122,-2.61631 6.1679,-3.27402 9.9097,-8.79892 9.9097,-13.56378 0,-1.31545 -0.2778,-2.6163 -0.9355,-3.82943"
     id="path100"
     style="stroke-width:0.935433" />
  <path
     class="Note"
     d="m 1356.5081,156.12984 c -1.6808,-3.09867 -5.2325,-4.77946 -9.5443,-4.77946 -3.1717,0 -6.6358,0.93544 -10.012,2.71856 -6.1681,3.27403 -9.9098,8.78432 -9.9098,13.56381 0,1.30083 0.2777,2.61628 0.9354,3.82943 1.6809,3.08404 5.2326,4.67718 9.5443,4.67718 3.1718,0 6.6358,-0.8331 10.0122,-2.61631 6.1679,-3.27402 9.9097,-8.79892 9.9097,-13.56378 0,-1.31545 -0.2778,-2.6163 -0.9355,-3.82943"
     id="path102"
     style="stroke-width:0.935433" />
  <path
     class="Note"
     d="m 1622.2181,156.12984 c -1.6808,-3.09867 -5.2325,-4.77946 -9.5443,-4.77946 -3.1717,0 -6.6358,0.93544 -10.012,2.71856 -6.1681,3.27403 -9.9098,8.78432 -9.9098,13.56381 0,1.30083 0.2777,2.61628 0.9354,3.82943 1.6809,3.08404 5.2326,4.67718 9.5443,4.67718 3.1718,0 6.6358,-0.8331 10.0122,-2.61631 6.1679,-3.27402 9.9097,-8.79892 9.9097,-13.56378 0,-1.31545 -0.2778,-2.6163 -0.9355,-3.82943"
     id="path104"
     style="stroke-width:0.935433" />
  <path
     class="Note"
     d="m 1622.2181,109.35784 c -1.6808,-3.09867 -5.2325,-4.77946 -9.5443,-4.77946 -3.1717,0 -6.6358,0.93544 -10.012,2.71856 -6.1681,3.27403 -9.9098,8.78432 -9.9098,13.56381 0,1.30083 0.2777,2.61628 0.9354,3.82943 1.6809,3.08404 5.2326,4.67718 9.5443,4.67718 3.1718,0 6.6358,-0.8331 10.0122,-2.61631 6.1679,-3.27402 9.9097,-8.79892 9.9097,-13.56378 0,-1.31545 -0.2778,-2.6163 -0.9355,-3.82943"
     id="path106"
     style="stroke-width:0.935433" />
  <path
     class="Note"
     d="m 1887.9281,156.12984 c -1.6808,-3.09867 -5.2325,-4.77946 -9.5443,-4.77946 -3.1717,0 -6.6358,0.93544 -10.012,2.71856 -6.1681,3.27403 -9.9098,8.78432 -9.9098,13.56381 0,1.30083 0.2777,2.61628 0.9354,3.82943 1.6809,3.08404 5.2326,4.67718 9.5443,4.67718 3.1718,0 6.6358,-0.8331 10.0122,-2.61631 6.1679,-3.27402 9.9097,-8.79892 9.9097,-13.56378 0,-1.31545 -0.2778,-2.6163 -0.9355,-3.82943"
     id="path108"
     style="stroke-width:0.935433" />
  <path
     class="Note"
     d="m 2020.7881,109.35784 c -1.6808,-3.09867 -5.2325,-4.77946 -9.5443,-4.77946 -3.1717,0 -6.6358,0.93544 -10.012,2.71856 -6.1681,3.27403 -9.9098,8.78432 -9.9098,13.56381 0,1.30083 0.2777,2.61628 0.9354,3.82943 1.6809,3.08404 5.2326,4.67718 9.5443,4.67718 3.1718,0 6.6358,-0.8331 10.0122,-2.61631 6.1679,-3.27402 9.9097,-8.79892 9.9097,-13.56378 0,-1.31545 -0.2778,-2.6163 -0.9355,-3.82943"
     id="path110"
     style="stroke-width:0.935433" />
  <path
     class="Note"
     d="m 2153.6381,156.12984 c -1.6808,-3.09867 -5.2325,-4.77946 -9.5443,-4.77946 -3.1717,0 -6.6358,0.93544 -10.012,2.71856 -6.1681,3.27403 -9.9098,8.78432 -9.9098,13.56381 0,1.30083 0.2777,2.61628 0.9354,3.82943 1.6809,3.08404 5.2326,4.67718 9.5443,4.67718 3.1718,0 6.6358,-0.8331 10.0122,-2.61631 6.1679,-3.27402 9.9097,-8.79892 9.9097,-13.56378 0,-1.31545 -0.2778,-2.6163 -0.9355,-3.82943"
     id="path112"
     style="stroke-width:0.935433" />
  <path
     class="Note"
     d="m 2153.6381,109.35784 c -1.6808,-3.09867 -5.2325,-4.77946 -9.5443,-4.77946 -3.1717,0 -6.6358,0.93544 -10.012,2.71856 -6.1681,3.27403 -9.9098,8.78432 -9.9098,13.56381 0,1.30083 0.2777,2.61628 0.9354,3.82943 1.6809,3.08404 5.2326,4.67718 9.5443,4.67718 3.1718,0 6.6358,-0.8331 10.0122,-2.61631 6.1679,-3.27402 9.9097,-8.79892 9.9097,-13.56378 0,-1.31545 -0.2778,-2.6163 -0.9355,-3.82943"
     id="path114"
     style="stroke-width:0.935433" />
  <path
     class="Note"
     d="m 2286.4881,156.12984 c -1.6808,-3.09867 -5.2325,-4.77946 -9.5443,-4.77946 -3.1717,0 -6.6358,0.93544 -10.012,2.71856 -6.1681,3.27403 -9.9098,8.78432 -9.9098,13.56381 0,1.30083 0.2777,2.61628 0.9354,3.82943 1.6809,3.08404 5.2326,4.67718 9.5443,4.67718 3.1718,0 6.6358,-0.8331 10.0122,-2.61631 6.1679,-3.27402 9.9097,-8.79892 9.9097,-13.56378 0,-1.31545 -0.2778,-2.6163 -0.9355,-3.82943"
     id="path116"
     style="stroke-width:0.935433" />
  <path
     class="Note"
     d="m 248.11867,70.157 11.41519,-8.97431 c 0.27773,-0.190015 0.46771,-0.570006 0.46771,-0.93548 v -0.102243 c 0,-0.365474 -0.18998,-0.657796 -0.36538,-0.83319 l -1.12542,-1.12542 c -0.27773,-0.189986 -0.57005,-0.379972 -0.93543,-0.379972 -0.27773,0 -0.6578,0.102242 -0.84778,0.277636 l -11.8829,9.456685 -11.97064,-9.456685 c -0.19001,-0.175394 -0.55542,-0.277636 -0.84774,-0.277636 -0.3654,0 -0.55541,0.189986 -0.83312,0.379972 l -1.21314,1.12542 c -0.19001,0.175394 -0.38002,0.55546 -0.38002,0.935433 0,0.365474 0.19001,0.745465 0.46772,0.93548 l 11.41518,8.97431 -11.41518,8.97431 c -0.27771,0.190015 -0.46772,0.570006 -0.46772,0.93548 0,0.292323 0.19001,0.657703 0.38002,0.847689 l 1.11083,1.213164 c 0.19001,0.27773 0.57003,0.379972 0.93543,0.379972 0.29232,0 0.65773,-0.102242 0.84774,-0.277636 l 11.97064,-9.456685 11.8829,9.456685 c 0.18998,0.175394 0.57005,0.277636 0.84778,0.277636 0.36538,0 0.74535,-0.102242 0.93543,-0.379972 l 1.12542,-1.213164 c 0.1754,-0.189986 0.36538,-0.555366 0.36538,-0.847689 0,-0.365474 -0.18998,-0.745465 -0.46771,-0.93548 L 248.11867,70.157"
     id="path118"
     style="stroke-width:0.935433" />
  <path
     class="Note"
     d="m 380.97367,70.157 11.41519,-8.97431 c 0.27773,-0.190015 0.46771,-0.570006 0.46771,-0.93548 v -0.102243 c 0,-0.365474 -0.18998,-0.657796 -0.36538,-0.83319 l -1.12542,-1.12542 c -0.27773,-0.189986 -0.57005,-0.379972 -0.93543,-0.379972 -0.27773,0 -0.6578,0.102242 -0.84778,0.277636 l -11.8829,9.456685 -11.97064,-9.456685 c -0.19001,-0.175394 -0.55542,-0.277636 -0.84774,-0.277636 -0.3654,0 -0.55541,0.189986 -0.83312,0.379972 l -1.21314,1.12542 c -0.19001,0.175394 -0.38002,0.55546 -0.38002,0.935433 0,0.365474 0.19001,0.745465 0.46772,0.93548 l 11.41518,8.97431 -11.41518,8.97431 c -0.27771,0.190015 -0.46772,0.570006 -0.46772,0.93548 0,0.292323 0.19001,0.657703 0.38002,0.847689 l 1.11083,1.213164 c 0.19001,0.27773 0.57003,0.379972 0.93543,0.379972 0.29232,0 0.65773,-0.102242 0.84774,-0.277636 l 11.97064,-9.456685 11.8829,9.456685 c 0.18998,0.175394 0.57005,0.277636 0.84778,0.277636 0.36538,0 0.74535,-0.102242 0.93543,-0.379972 l 1.12542,-1.213164 c 0.1754,-0.189986 0.36538,-0.555366 0.36538,-0.847689 0,-0.365474 -0.18998,-0.745465 -0.46771,-0.93548 L 380.97367,70.157"
     id="path120"
     style="stroke-width:0.935433" />
  <path
     class="Note"
     d="m 513.82767,70.157 11.41519,-8.97431 c 0.27773,-0.190015 0.46771,-0.570006 0.46771,-0.93548 v -0.102243 c 0,-0.365474 -0.18998,-0.657796 -0.36538,-0.83319 l -1.12542,-1.12542 c -0.27773,-0.189986 -0.57005,-0.379972 -0.93543,-0.379972 -0.27773,0 -0.6578,0.102242 -0.84778,0.277636 l -11.8829,9.456685 -11.97064,-9.456685 c -0.19001,-0.175394 -0.55542,-0.277636 -0.84774,-0.277636 -0.3654,0 -0.55541,0.189986 -0.83312,0.379972 l -1.21314,1.12542 c -0.19001,0.175394 -0.38002,0.55546 -0.38002,0.935433 0,0.365474 0.19001,0.745465 0.46772,0.93548 l 11.41518,8.97431 -11.41518,8.97431 c -0.27771,0.190015 -0.46772,0.570006 -0.46772,0.93548 0,0.292323 0.19001,0.657703 0.38002,0.847689 l 1.11083,1.213164 c 0.19001,0.27773 0.57003,0.379972 0.93543,0.379972 0.29232,0 0.65773,-0.102242 0.84774,-0.277636 l 11.97064,-9.456685 11.8829,9.456685 c 0.18998,0.175394 0.57005,0.277636 0.84778,0.277636 0.36538,0 0.74535,-0.102242 0.93543,-0.379972 l 1.12542,-1.213164 c 0.1754,-0.189986 0.36538,-0.555366 0.36538,-0.847689 0,-0.365474 -0.18998,-0.745465 -0.46771,-0.93548 L 513.82767,70.157"
     id="path122"
     style="stroke-width:0.935433" />
  <path
     class="Note"
     d="m 646.68167,70.157 11.41519,-8.97431 c 0.27773,-0.190015 0.46771,-0.570006 0.46771,-0.93548 v -0.102243 c 0,-0.365474 -0.18998,-0.657796 -0.36538,-0.83319 l -1.12542,-1.12542 c -0.27773,-0.189986 -0.57005,-0.379972 -0.93543,-0.379972 -0.27773,0 -0.6578,0.102242 -0.84778,0.277636 l -11.8829,9.456685 -11.97064,-9.456685 c -0.19001,-0.175394 -0.55542,-0.277636 -0.84774,-0.277636 -0.3654,0 -0.55541,0.189986 -0.83312,0.379972 l -1.21314,1.12542 c -0.19001,0.175394 -0.38002,0.55546 -0.38002,0.935433 0,0.365474 0.19001,0.745465 0.46772,0.93548 l 11.41518,8.97431 -11.41518,8.97431 c -0.27771,0.190015 -0.46772,0.570006 -0.46772,0.93548 0,0.292323 0.19001,0.657703 0.38002,0.847689 l 1.11083,1.213164 c 0.19001,0.27773 0.57003,0.379972 0.93543,0.379972 0.29232,0 0.65773,-0.102242 0.84774,-0.277636 l 11.97064,-9.456685 11.8829,9.456685 c 0.18998,0.175394 0.57005,0.277636 0.84778,0.277636 0.36538,0 0.74535,-0.102242 0.93543,-0.379972 l 1.12542,-1.213164 c 0.1754,-0.189986 0.36538,-0.555366 0.36538,-0.847689 0,-0.365474 -0.18998,-0.745465 -0.46771,-0.93548 L 646.68167,70.157"
     id="path124"
     style="stroke-width:0.935433" />
  <path
     class="Note"
     d="m 779.54067,70.157 11.41519,-8.97431 c 0.27773,-0.190015 0.46771,-0.570006 0.46771,-0.93548 v -0.102243 c 0,-0.365474 -0.18998,-0.657796 -0.36538,-0.83319 l -1.12542,-1.12542 c -0.27773,-0.189986 -0.57005,-0.379972 -0.93543,-0.379972 -0.27773,0 -0.6578,0.102242 -0.84778,0.277636 l -11.8829,9.456685 -11.97064,-9.456685 c -0.19001,-0.175394 -0.55542,-0.277636 -0.84774,-0.277636 -0.3654,0 -0.55541,0.189986 -0.83312,0.379972 l -1.21314,1.12542 c -0.19001,0.175394 -0.38002,0.55546 -0.38002,0.935433 0,0.365474 0.19001,0.745465 0.46772,0.93548 l 11.41518,8.97431 -11.41518,8.97431 c -0.27771,0.190015 -0.46772,0.570006 -0.46772,0.93548 0,0.292323 0.19001,0.657703 0.38002,0.847689 l 1.11083,1.213164 c 0.19001,0.27773 0.57003,0.379972 0.93543,0.379972 0.29232,0 0.65773,-0.102242 0.84774,-0.277636 l 11.97064,-9.456685 11.8829,9.456685 c 0.18998,0.175394 0.57005,0.277636 0.84778,0.277636 0.36538,0 0.74535,-0.102242 0.93543,-0.379972 l 1.12542,-1.213164 c 0.1754,-0.189986 0.36538,-0.555366 0.36538,-0.847689 0,-0.365474 -0.18998,-0.745465 -0.46771,-0.93548 L 779.54067,70.157"
     id="path126"
     style="stroke-width:0.935433" />
  <path
     class="Note"
     d="m 912.39067,70.157 11.41519,-8.97431 c 0.27773,-0.190015 0.46771,-0.570006 0.46771,-0.93548 v -0.102243 c 0,-0.365474 -0.18998,-0.657796 -0.36538,-0.83319 l -1.12542,-1.12542 c -0.27773,-0.189986 -0.57005,-0.379972 -0.93543,-0.379972 -0.27773,0 -0.6578,0.102242 -0.84778,0.277636 l -11.8829,9.456685 -11.97064,-9.456685 c -0.19001,-0.175394 -0.55542,-0.277636 -0.84774,-0.277636 -0.3654,0 -0.55541,0.189986 -0.83312,0.379972 l -1.21314,1.12542 c -0.19001,0.175394 -0.38002,0.55546 -0.38002,0.935433 0,0.365474 0.19001,0.745465 0.46772,0.93548 l 11.41518,8.97431 -11.41518,8.97431 c -0.27771,0.190015 -0.46772,0.570006 -0.46772,0.93548 0,0.292323 0.19001,0.657703 0.38002,0.847689 l 1.11083,1.213164 c 0.19001,0.27773 0.57003,0.379972 0.93543,0.379972 0.29232,0 0.65773,-0.102242 0.84774,-0.277636 l 11.97064,-9.456685 11.8829,9.456685 c 0.18998,0.175394 0.57005,0.277636 0.84778,0.277636 0.36538,0 0.74535,-0.102242 0.93543,-0.379972 l 1.12542,-1.213164 c 0.1754,-0.189986 0.36538,-0.555366 0.36538,-0.847689 0,-0.365474 -0.18998,-0.745465 -0.46771,-0.93548 L 912.39067,70.157"
     id="path128"
     style="stroke-width:0.935433" />
  <path
     class="Note"
     d="m 1045.2407,70.157 11.4152,-8.97431 c 0.2777,-0.190015 0.4677,-0.570006 0.4677,-0.93548 v -0.102243 c 0,-0.365474 -0.19,-0.657796 -0.3654,-0.83319 l -1.1254,-1.12542 c -0.2778,-0.189986 -0.5701,-0.379972 -0.9355,-0.379972 -0.2777,0 -0.6578,0.102242 -0.8477,0.277636 l -11.8829,9.456685 -11.9707,-9.456685 c -0.19,-0.175394 -0.5554,-0.277636 -0.8477,-0.277636 -0.3654,0 -0.5554,0.189986 -0.8331,0.379972 l -1.2132,1.12542 c -0.19,0.175394 -0.38,0.55546 -0.38,0.935433 0,0.365474 0.19,0.745465 0.4677,0.93548 l 11.4152,8.97431 -11.4152,8.97431 c -0.2777,0.190015 -0.4677,0.570006 -0.4677,0.93548 0,0.292323 0.19,0.657703 0.38,0.847689 l 1.1108,1.213164 c 0.1901,0.27773 0.5701,0.379972 0.9355,0.379972 0.2923,0 0.6577,-0.102242 0.8477,-0.277636 l 11.9707,-9.456685 11.8829,9.456685 c 0.1899,0.175394 0.57,0.277636 0.8477,0.277636 0.3654,0 0.7454,-0.102242 0.9355,-0.379972 l 1.1254,-1.213164 c 0.1754,-0.189986 0.3654,-0.555366 0.3654,-0.847689 0,-0.365474 -0.19,-0.745465 -0.4677,-0.93548 L 1045.2407,70.157"
     id="path130"
     style="stroke-width:0.935433" />
  <path
     class="Note"
     d="m 1178.1007,70.157 11.4152,-8.97431 c 0.2777,-0.190015 0.4677,-0.570006 0.4677,-0.93548 v -0.102243 c 0,-0.365474 -0.19,-0.657796 -0.3654,-0.83319 l -1.1254,-1.12542 c -0.2778,-0.189986 -0.5701,-0.379972 -0.9355,-0.379972 -0.2777,0 -0.6578,0.102242 -0.8477,0.277636 l -11.8829,9.456685 -11.9707,-9.456685 c -0.19,-0.175394 -0.5554,-0.277636 -0.8477,-0.277636 -0.3654,0 -0.5554,0.189986 -0.8331,0.379972 l -1.2132,1.12542 c -0.19,0.175394 -0.38,0.55546 -0.38,0.935433 0,0.365474 0.19,0.745465 0.4677,0.93548 l 11.4152,8.97431 -11.4152,8.97431 c -0.2777,0.190015 -0.4677,0.570006 -0.4677,0.93548 0,0.292323 0.19,0.657703 0.38,0.847689 l 1.1108,1.213164 c 0.1901,0.27773 0.5701,0.379972 0.9355,0.379972 0.2923,0 0.6577,-0.102242 0.8477,-0.277636 l 11.9707,-9.456685 11.8829,9.456685 c 0.1899,0.175394 0.57,0.277636 0.8477,0.277636 0.3654,0 0.7454,-0.102242 0.9355,-0.379972 l 1.1254,-1.213164 c 0.1754,-0.189986 0.3654,-0.555366 0.3654,-0.847689 0,-0.365474 -0.19,-0.745465 -0.4677,-0.93548 L 1178.1007,70.157"
     id="path132"
     style="stroke-width:0.935433" />
  <path
     class="Note"
     d="m 1345.5607,70.157 11.4152,-8.97431 c 0.2777,-0.190015 0.4677,-0.570006 0.4677,-0.93548 v -0.102243 c 0,-0.365474 -0.19,-0.657796 -0.3654,-0.83319 l -1.1254,-1.12542 c -0.2778,-0.189986 -0.5701,-0.379972 -0.9355,-0.379972 -0.2777,0 -0.6578,0.102242 -0.8477,0.277636 l -11.8829,9.456685 -11.9707,-9.456685 c -0.19,-0.175394 -0.5554,-0.277636 -0.8477,-0.277636 -0.3654,0 -0.5554,0.189986 -0.8331,0.379972 l -1.2132,1.12542 c -0.19,0.175394 -0.38,0.55546 -0.38,0.935433 0,0.365474 0.19,0.745465 0.4677,0.93548 l 11.4152,8.97431 -11.4152,8.97431 c -0.2777,0.190015 -0.4677,0.570006 -0.4677,0.93548 0,0.292323 0.19,0.657703 0.38,0.847689 l 1.1108,1.213164 c 0.1901,0.27773 0.5701,0.379972 0.9355,0.379972 0.2923,0 0.6577,-0.102242 0.8477,-0.277636 l 11.9707,-9.456685 11.8829,9.456685 c 0.1899,0.175394 0.57,0.277636 0.8477,0.277636 0.3654,0 0.7454,-0.102242 0.9355,-0.379972 l 1.1254,-1.213164 c 0.1754,-0.189986 0.3654,-0.555366 0.3654,-0.847689 0,-0.365474 -0.19,-0.745465 -0.4677,-0.93548 L 1345.5607,70.157"
     id="path134"
     style="stroke-width:0.935433" />
  <path
     class="Note"
     d="m 1478.4207,70.157 11.4152,-8.97431 c 0.2777,-0.190015 0.4677,-0.570006 0.4677,-0.93548 v -0.102243 c 0,-0.365474 -0.19,-0.657796 -0.3654,-0.83319 l -1.1254,-1.12542 c -0.2778,-0.189986 -0.5701,-0.379972 -0.9355,-0.379972 -0.2777,0 -0.6578,0.102242 -0.8477,0.277636 l -11.8829,9.456685 -11.9707,-9.456685 c -0.19,-0.175394 -0.5554,-0.277636 -0.8477,-0.277636 -0.3654,0 -0.5554,0.189986 -0.8331,0.379972 l -1.2132,1.12542 c -0.19,0.175394 -0.38,0.55546 -0.38,0.935433 0,0.365474 0.19,0.745465 0.4677,0.93548 l 11.4152,8.97431 -11.4152,8.97431 c -0.2777,0.190015 -0.4677,0.570006 -0.4677,0.93548 0,0.292323 0.19,0.657703 0.38,0.847689 l 1.1108,1.213164 c 0.1901,0.27773 0.5701,0.379972 0.9355,0.379972 0.2923,0 0.6577,-0.102242 0.8477,-0.277636 l 11.9707,-9.456685 11.8829,9.456685 c 0.1899,0.175394 0.57,0.277636 0.8477,0.277636 0.3654,0 0.7454,-0.102242 0.9355,-0.379972 l 1.1254,-1.213164 c 0.1754,-0.189986 0.3654,-0.555366 0.3654,-0.847689 0,-0.365474 -0.19,-0.745465 -0.4677,-0.93548 L 1478.4207,70.157"
     id="path136"
     style="stroke-width:0.935433" />
  <path
     class="Note"
     d="m 1611.2707,70.157 11.4152,-8.97431 c 0.2777,-0.190015 0.4677,-0.570006 0.4677,-0.93548 v -0.102243 c 0,-0.365474 -0.19,-0.657796 -0.3654,-0.83319 l -1.1254,-1.12542 c -0.2778,-0.189986 -0.5701,-0.379972 -0.9355,-0.379972 -0.2777,0 -0.6578,0.102242 -0.8477,0.277636 l -11.8829,9.456685 -11.9707,-9.456685 c -0.19,-0.175394 -0.5554,-0.277636 -0.8477,-0.277636 -0.3654,0 -0.5554,0.189986 -0.8331,0.379972 l -1.2132,1.12542 c -0.19,0.175394 -0.38,0.55546 -0.38,0.935433 0,0.365474 0.19,0.745465 0.4677,0.93548 l 11.4152,8.97431 -11.4152,8.97431 c -0.2777,0.190015 -0.4677,0.570006 -0.4677,0.93548 0,0.292323 0.19,0.657703 0.38,0.847689 l 1.1108,1.213164 c 0.1901,0.27773 0.5701,0.379972 0.9355,0.379972 0.2923,0 0.6577,-0.102242 0.8477,-0.277636 l 11.9707,-9.456685 11.8829,9.456685 c 0.1899,0.175394 0.57,0.277636 0.8477,0.277636 0.3654,0 0.7454,-0.102242 0.9355,-0.379972 l 1.1254,-1.213164 c 0.1754,-0.189986 0.3654,-0.555366 0.3654,-0.847689 0,-0.365474 -0.19,-0.745465 -0.4677,-0.93548 L 1611.2707,70.157"
     id="path138"
     style="stroke-width:0.935433" />
  <path
     class="Note"
     d="m 1744.1307,70.157 11.4152,-8.97431 c 0.2777,-0.190015 0.4677,-0.570006 0.4677,-0.93548 v -0.102243 c 0,-0.365474 -0.19,-0.657796 -0.3654,-0.83319 l -1.1254,-1.12542 c -0.2778,-0.189986 -0.5701,-0.379972 -0.9355,-0.379972 -0.2777,0 -0.6578,0.102242 -0.8477,0.277636 l -11.8829,9.456685 -11.9707,-9.456685 c -0.19,-0.175394 -0.5554,-0.277636 -0.8477,-0.277636 -0.3654,0 -0.5554,0.189986 -0.8331,0.379972 l -1.2132,1.12542 c -0.19,0.175394 -0.38,0.55546 -0.38,0.935433 0,0.365474 0.19,0.745465 0.4677,0.93548 l 11.4152,8.97431 -11.4152,8.97431 c -0.2777,0.190015 -0.4677,0.570006 -0.4677,0.93548 0,0.292323 0.19,0.657703 0.38,0.847689 l 1.1108,1.213164 c 0.1901,0.27773 0.5701,0.379972 0.9355,0.379972 0.2923,0 0.6577,-0.102242 0.8477,-0.277636 l 11.9707,-9.456685 11.8829,9.456685 c 0.1899,0.175394 0.57,0.277636 0.8477,0.277636 0.3654,0 0.7454,-0.102242 0.9355,-0.379972 l 1.1254,-1.213164 c 0.1754,-0.189986 0.3654,-0.555366 0.3654,-0.847689 0,-0.365474 -0.19,-0.745465 -0.4677,-0.93548 L 1744.1307,70.157"
     id="path140"
     style="stroke-width:0.935433" />
  <path
     class="Note"
     d="m 1876.9807,70.157 11.4152,-8.97431 c 0.2777,-0.190015 0.4677,-0.570006 0.4677,-0.93548 v -0.102243 c 0,-0.365474 -0.19,-0.657796 -0.3654,-0.83319 l -1.1254,-1.12542 c -0.2778,-0.189986 -0.5701,-0.379972 -0.9355,-0.379972 -0.2777,0 -0.6578,0.102242 -0.8477,0.277636 l -11.8829,9.456685 -11.9707,-9.456685 c -0.19,-0.175394 -0.5554,-0.277636 -0.8477,-0.277636 -0.3654,0 -0.5554,0.189986 -0.8331,0.379972 l -1.2132,1.12542 c -0.19,0.175394 -0.38,0.55546 -0.38,0.935433 0,0.365474 0.19,0.745465 0.4677,0.93548 l 11.4152,8.97431 -11.4152,8.97431 c -0.2777,0.190015 -0.4677,0.570006 -0.4677,0.93548 0,0.292323 0.19,0.657703 0.38,0.847689 l 1.1108,1.213164 c 0.1901,0.27773 0.5701,0.379972 0.9355,0.379972 0.2923,0 0.6577,-0.102242 0.8477,-0.277636 l 11.9707,-9.456685 11.8829,9.456685 c 0.1899,0.175394 0.57,0.277636 0.8477,0.277636 0.3654,0 0.7454,-0.102242 0.9355,-0.379972 l 1.1254,-1.213164 c 0.1754,-0.189986 0.3654,-0.555366 0.3654,-0.847689 0,-0.365474 -0.19,-0.745465 -0.4677,-0.93548 L 1876.9807,70.157"
     id="path142"
     style="stroke-width:0.935433" />
  <path
     class="Note"
     d="m 2009.8407,70.157 11.4152,-8.97431 c 0.2777,-0.190015 0.4677,-0.570006 0.4677,-0.93548 v -0.102243 c 0,-0.365474 -0.19,-0.657796 -0.3654,-0.83319 l -1.1254,-1.12542 c -0.2778,-0.189986 -0.5701,-0.379972 -0.9355,-0.379972 -0.2777,0 -0.6578,0.102242 -0.8477,0.277636 l -11.8829,9.456685 -11.9707,-9.456685 c -0.19,-0.175394 -0.5554,-0.277636 -0.8477,-0.277636 -0.3654,0 -0.5554,0.189986 -0.8331,0.379972 l -1.2132,1.12542 c -0.19,0.175394 -0.38,0.55546 -0.38,0.935433 0,0.365474 0.19,0.745465 0.4677,0.93548 l 11.4152,8.97431 -11.4152,8.97431 c -0.2777,0.190015 -0.4677,0.570006 -0.4677,0.93548 0,0.292323 0.19,0.657703 0.38,0.847689 l 1.1108,1.213164 c 0.1901,0.27773 0.5701,0.379972 0.9355,0.379972 0.2923,0 0.6577,-0.102242 0.8477,-0.277636 l 11.9707,-9.456685 11.8829,9.456685 c 0.1899,0.175394 0.57,0.277636 0.8477,0.277636 0.3654,0 0.7454,-0.102242 0.9355,-0.379972 l 1.1254,-1.213164 c 0.1754,-0.189986 0.3654,-0.555366 0.3654,-0.847689 0,-0.365474 -0.19,-0.745465 -0.4677,-0.93548 L 2009.8407,70.157"
     id="path144"
     style="stroke-width:0.935433" />
  <path
     class="Note"
     d="m 2142.6907,70.157 11.4152,-8.97431 c 0.2777,-0.190015 0.4677,-0.570006 0.4677,-0.93548 v -0.102243 c 0,-0.365474 -0.19,-0.657796 -0.3654,-0.83319 l -1.1254,-1.12542 c -0.2778,-0.189986 -0.5701,-0.379972 -0.9355,-0.379972 -0.2777,0 -0.6578,0.102242 -0.8477,0.277636 l -11.8829,9.456685 -11.9707,-9.456685 c -0.19,-0.175394 -0.5554,-0.277636 -0.8477,-0.277636 -0.3654,0 -0.5554,0.189986 -0.8331,0.379972 l -1.2132,1.12542 c -0.19,0.175394 -0.38,0.55546 -0.38,0.935433 0,0.365474 0.19,0.745465 0.4677,0.93548 l 11.4152,8.97431 -11.4152,8.97431 c -0.2777,0.190015 -0.4677,0.570006 -0.4677,0.93548 0,0.292323 0.19,0.657703 0.38,0.847689 l 1.1108,1.213164 c 0.1901,0.27773 0.5701,0.379972 0.9355,0.379972 0.2923,0 0.6577,-0.102242 0.8477,-0.277636 l 11.9707,-9.456685 11.8829,9.456685 c 0.1899,0.175394 0.57,0.277636 0.8477,0.277636 0.3654,0 0.7454,-0.102242 0.9355,-0.379972 l 1.1254,-1.213164 c 0.1754,-0.189986 0.3654,-0.555366 0.3654,-0.847689 0,-0.365474 -0.19,-0.745465 -0.4677,-0.93548 L 2142.6907,70.157"
     id="path146"
     style="stroke-width:0.935433" />
  <path
     class="Note"
     d="m 2275.5407,70.157 11.4152,-8.97431 c 0.2777,-0.190015 0.4677,-0.570006 0.4677,-0.93548 v -0.102243 c 0,-0.365474 -0.19,-0.657796 -0.3654,-0.83319 l -1.1254,-1.12542 c -0.2778,-0.189986 -0.5701,-0.379972 -0.9355,-0.379972 -0.2777,0 -0.6578,0.102242 -0.8477,0.277636 l -11.8829,9.456685 -11.9707,-9.456685 c -0.19,-0.175394 -0.5554,-0.277636 -0.8477,-0.277636 -0.3654,0 -0.5554,0.189986 -0.8331,0.379972 l -1.2132,1.12542 c -0.19,0.175394 -0.38,0.55546 -0.38,0.935433 0,0.365474 0.19,0.745465 0.4677,0.93548 l 11.4152,8.97431 -11.4152,8.97431 c -0.2777,0.190015 -0.4677,0.570006 -0.4677,0.93548 0,0.292323 0.19,0.657703 0.38,0.847689 l 1.1108,1.213164 c 0.1901,0.27773 0.5701,0.379972 0.9355,0.379972 0.2923,0 0.6577,-0.102242 0.8477,-0.277636 l 11.9707,-9.456685 11.8829,9.456685 c 0.1899,0.175394 0.57,0.277636 0.8477,0.277636 0.3654,0 0.7454,-0.102242 0.9355,-0.379972 l 1.1254,-1.213164 c 0.1754,-0.189986 0.3654,-0.555366 0.3654,-0.847689 0,-0.365474 -0.19,-0.745465 -0.4677,-0.93548 L 2275.5407,70.157"
     id="path148"
     style="stroke-width:0.935433" />
  <path
     class="Clef"
     d="M 30.210926,105.04619 H 19.921144 c -0.657731,0 -1.213144,0.56996 -1.213144,1.21307 v 44.72548 c 0,0.64311 0.555413,1.21307 1.213144,1.21307 h 10.289782 c 0.657703,0 1.213163,-0.56996 1.213163,-1.21307 v -44.72548 c 0,-0.64311 -0.55546,-1.21307 -1.213163,-1.21307 m 20.214146,0 H 40.135309 c -0.657797,0 -1.227756,0.56996 -1.227756,1.21307 v 44.72548 c 0,0.64311 0.569959,1.21307 1.227756,1.21307 h 10.289763 c 0.657703,0 1.213069,-0.56996 1.213069,-1.21307 v -44.72548 c 0,-0.64311 -0.555366,-1.21307 -1.213069,-1.21307"
     id="path150"
     style="stroke-width:0.935433" />
  <path
     class="TimeSig"
     d="m 77.092712,117.16984 h 16.063116 v 6.97188 h -7.688044 c -0.730853,0 -1.330092,0.58464 -1.330092,1.3155 v 1.78312 c 0,0.73085 0.599239,1.3155 1.330092,1.3155 h 28.296846 c 0.73076,0 1.31541,-0.58465 1.31541,-1.3155 v -1.78312 c 0,-0.73086 -0.58465,-1.3155 -1.31541,-1.3155 h -8.36043 v -6.97188 h 8.36043 c 0.73076,0 1.31541,-0.58464 1.31541,-1.3154 v -1.78322 c 0,-0.73081 -0.58465,-1.31545 -1.31541,-1.31545 H 105.4042 V 97.818071 c 0,-0.496948 -0.29232,-0.950053 -0.73085,-1.169291 l -1.14002,-0.570034 c -0.49699,-0.233877 -1.08164,-0.146133 -1.49089,0.219247 l -8.462674,7.775787 c -0.263138,0.26309 -0.423938,0.59926 -0.423938,0.97928 v 7.70271 H 82.383755 c 0,0 10.406692,-11.25443 21.485775,-26.002094 0.80382,-1.081641 0.3361,-2.060946 0.16071,-2.236339 l -2.03158,-2.060853 c -0.24854,-0.248451 -0.58464,-0.394659 -0.93543,-0.394659 -0.55546,0 -13.24227,0.02928 -13.914566,0 -0.672389,-0.01459 -1.169291,0.570053 -1.242442,1.140106 0,0 -0.496902,6.884225 -2.937821,14.499211 -2.426279,7.585778 -5.174114,12.248328 -7.658858,15.639268 0,0 -0.51156,0.92082 -0.175394,1.62237 0.321556,0.70158 0.920822,1.71016 0.920822,1.71016 0,0 0.233858,0.4969 1.037741,0.4969"
     id="path152"
     style="stroke-width:0.935433" />
  <path
     class="TimeSig"
     d="m 77.092712,163.69284 h 16.063116 v 6.97188 h -7.688044 c -0.730853,0 -1.330092,0.58464 -1.330092,1.3155 v 1.78312 c 0,0.73085 0.599239,1.3155 1.330092,1.3155 h 28.296846 c 0.73076,0 1.31541,-0.58465 1.31541,-1.3155 v -1.78312 c 0,-0.73086 -0.58465,-1.3155 -1.31541,-1.3155 h -8.36043 v -6.97188 h 8.36043 c 0.73076,0 1.31541,-0.58464 1.31541,-1.3154 v -1.78322 c 0,-0.73081 -0.58465,-1.31545 -1.31541,-1.31545 h -8.36043 v -14.9377 c 0,-0.49695 -0.29232,-0.95005 -0.73085,-1.16929 l -1.14002,-0.57003 c -0.49699,-0.23388 -1.08164,-0.14614 -1.49089,0.21924 l -8.462674,7.77579 c -0.263138,0.26309 -0.423938,0.59926 -0.423938,0.97928 v 7.70271 H 82.383755 c 0,0 10.406692,-11.25443 21.485775,-26.00209 0.80382,-1.08164 0.3361,-2.06095 0.16071,-2.23634 l -2.03158,-2.06086 c -0.24854,-0.24845 -0.58464,-0.39465 -0.93543,-0.39465 -0.55546,0 -13.24227,0.0293 -13.914566,0 -0.672389,-0.0146 -1.169291,0.57005 -1.242442,1.1401 0,0 -0.496902,6.88423 -2.937821,14.49921 -2.426279,7.58578 -5.174114,12.24833 -7.658858,15.63927 0,0 -0.51156,0.92082 -0.175394,1.62237 0.321556,0.70158 0.920822,1.71016 0.920822,1.71016 0,0 0.233858,0.4969 1.037741,0.4969"
     id="path154"
     style="stroke-width:0.935433" />
  <path
     class="Beam"
     fill-rule="evenodd"
     d="m 1026.722,228.012 h 135.43 v 11.693 h -135.43 v -11.693"
     id="path156" />
  <path
     class="Beam"
     fill-rule="evenodd"
     d="m 1858.462,222.165 h 401.14 v 11.693 h -401.14 v -11.693"
     id="path158" />
  <path
     class="Beam"
     fill-rule="evenodd"
     d="M 257.422,0 H 658.558 V 11.693 H 257.422 V 0"
     id="path160" />
  <path
     class="Beam"
     fill-rule="evenodd"
     d="m 788.842,0 h 401.13 V 11.693 H 788.842 V 0"
     id="path162" />
  <path
     class="Beam"
     fill-rule="evenodd"
     d="m 1354.872,0 h 401.13 v 11.693 h -401.13 V 0"
     id="path164" />
  <path
     class="Beam"
     fill-rule="evenodd"
     d="m 1886.282,0 h 401.14 v 11.693 h -401.14 V 0"
     id="path166" />
  <metadata
     id="metadata174">
    <rdf:RDF>
      <cc:Work
         rdf:about="">
        <dc:title>Sin título-2</dc:title>
      </cc:Work>
    </rdf:RDF>
  </metadata>
</svg>
