<?xml version="1.0" encoding="UTF-8" standalone="no"?>
<svg width="2976.38px" height="4209.45px" viewBox="0 0 2976.38 4209.45"
 xmlns="http://www.w3.org/2000/svg" xmlns:xlink="http://www.w3.org/1999/xlink" version="1.2" baseProfile="tiny">
<title>Sin título-2</title>
<desc>Generated by MuseScore 3.6.2</desc>
<polyline class="StaffLines" fill="none" stroke="#000000" stroke-width="2.57" stroke-linejoin="bevel" points="329.528,376.299 2763.78,376.299"/>
<polyline class="StaffLines" fill="none" stroke="#000000" stroke-width="2.57" stroke-linejoin="bevel" points="329.528,399.685 2763.78,399.685"/>
<polyline class="StaffLines" fill="none" stroke="#000000" stroke-width="2.57" stroke-linejoin="bevel" points="329.528,423.071 2763.78,423.071"/>
<polyline class="StaffLines" fill="none" stroke="#000000" stroke-width="2.57" stroke-linejoin="bevel" points="329.528,446.457 2763.78,446.457"/>
<polyline class="StaffLines" fill="none" stroke="#000000" stroke-width="2.57" stroke-linejoin="bevel" points="329.528,469.843 2763.78,469.843"/>
<polyline class="BarLine" fill="none" stroke="#000000" stroke-width="12.86" stroke-linejoin="bevel" points="462.724,375.013 462.724,471.129"/>
<polyline class="BarLine" fill="none" stroke="#000000" stroke-width="4.21" stroke-linejoin="bevel" points="479.095,375.013 479.095,471.129"/>
<path class="BarLine" transform="matrix(0.935433,0,0,0.935433,490.597,411.378)" d="M10.4063,0 C10.4063,-2.90625 8.09375,-5.29688 5.20313,-5.29688 C2.29688,-5.29688 0,-2.90625 0,0 C0,2.90625 2.29688,5.29688 5.20313,5.29688 C8.09375,5.29688 10.4063,2.90625 10.4063,0"/>
<path class="BarLine" transform="matrix(0.935433,0,0,0.935433,490.597,434.764)" d="M10.4063,0 C10.4063,-2.90625 8.09375,-5.29688 5.20313,-5.29688 C2.29688,-5.29688 0,-2.90625 0,0 C0,2.90625 2.29688,5.29688 5.20313,5.29688 C8.09375,5.29688 10.4063,2.90625 10.4063,0"/>
<polyline class="BarLine" fill="none" stroke="#000000" stroke-width="4.21" stroke-linejoin="bevel" points="1624.07,375.013 1624.07,471.129"/>
<path class="BarLine" transform="matrix(0.935433,0,0,0.935433,2719.41,411.378)" d="M10.4063,0 C10.4063,-2.90625 8.09375,-5.29688 5.20313,-5.29688 C2.29688,-5.29688 0,-2.90625 0,0 C0,2.90625 2.29688,5.29688 5.20313,5.29688 C8.09375,5.29688 10.4063,2.90625 10.4063,0"/>
<path class="BarLine" transform="matrix(0.935433,0,0,0.935433,2719.41,434.764)" d="M10.4063,0 C10.4063,-2.90625 8.09375,-5.29688 5.20313,-5.29688 C2.29688,-5.29688 0,-2.90625 0,0 C0,2.90625 2.29688,5.29688 5.20313,5.29688 C8.09375,5.29688 10.4063,2.90625 10.4063,0"/>
<polyline class="BarLine" fill="none" stroke="#000000" stroke-width="4.21" stroke-linejoin="bevel" points="2740.64,375.013 2740.64,471.129"/>
<polyline class="BarLine" fill="none" stroke="#000000" stroke-width="12.86" stroke-linejoin="bevel" points="2757.01,375.013 2757.01,471.129"/>
<polyline class="Stem" fill="none" stroke="#000000" stroke-width="2.57" stroke-linejoin="bevel" points="560.415,461.293 560.415,522.461"/>
<polyline class="Stem" fill="none" stroke="#000000" stroke-width="2.57" stroke-linejoin="bevel" points="826.123,414.521 826.123,522.461"/>
<polyline class="Stem" fill="none" stroke="#000000" stroke-width="2.57" stroke-linejoin="bevel" points="1091.83,461.293 1091.83,522.461"/>
<polyline class="Stem" fill="none" stroke="#000000" stroke-width="2.57" stroke-linejoin="bevel" points="1357.54,414.521 1357.54,528.307"/>
<polyline class="Stem" fill="none" stroke="#000000" stroke-width="2.57" stroke-linejoin="bevel" points="1490.4,461.293 1490.4,528.307"/>
<polyline class="Stem" fill="none" stroke="#000000" stroke-width="2.57" stroke-linejoin="bevel" points="1657.86,461.293 1657.86,522.461"/>
<polyline class="Stem" fill="none" stroke="#000000" stroke-width="2.57" stroke-linejoin="bevel" points="1923.57,414.521 1923.57,522.461"/>
<polyline class="Stem" fill="none" stroke="#000000" stroke-width="2.57" stroke-linejoin="bevel" points="2189.28,461.293 2189.28,522.461"/>
<polyline class="Stem" fill="none" stroke="#000000" stroke-width="2.57" stroke-linejoin="bevel" points="2322.13,414.521 2322.13,522.461"/>
<polyline class="Stem" fill="none" stroke="#000000" stroke-width="2.57" stroke-linejoin="bevel" points="2454.99,414.521 2454.99,522.461"/>
<polyline class="Stem" fill="none" stroke="#000000" stroke-width="2.57" stroke-linejoin="bevel" points="2587.84,461.293 2587.84,522.461"/>
<polyline class="Stem" fill="none" stroke="#000000" stroke-width="2.57" stroke-linejoin="bevel" points="588.236,356.674 588.236,300.295"/>
<polyline class="Stem" fill="none" stroke="#000000" stroke-width="2.57" stroke-linejoin="bevel" points="721.091,356.674 721.091,300.295"/>
<polyline class="Stem" fill="none" stroke="#000000" stroke-width="2.57" stroke-linejoin="bevel" points="853.945,356.674 853.945,300.295"/>
<polyline class="Stem" fill="none" stroke="#000000" stroke-width="2.57" stroke-linejoin="bevel" points="986.8,356.674 986.8,300.295"/>
<polyline class="Stem" fill="none" stroke="#000000" stroke-width="2.57" stroke-linejoin="bevel" points="1119.65,356.674 1119.65,300.295"/>
<polyline class="Stem" fill="none" stroke="#000000" stroke-width="2.57" stroke-linejoin="bevel" points="1252.51,356.674 1252.51,300.295"/>
<polyline class="Stem" fill="none" stroke="#000000" stroke-width="2.57" stroke-linejoin="bevel" points="1385.36,356.674 1385.36,300.295"/>
<polyline class="Stem" fill="none" stroke="#000000" stroke-width="2.57" stroke-linejoin="bevel" points="1518.22,356.674 1518.22,300.295"/>
<polyline class="Stem" fill="none" stroke="#000000" stroke-width="2.57" stroke-linejoin="bevel" points="1685.68,356.674 1685.68,300.295"/>
<polyline class="Stem" fill="none" stroke="#000000" stroke-width="2.57" stroke-linejoin="bevel" points="1818.54,356.674 1818.54,300.295"/>
<polyline class="Stem" fill="none" stroke="#000000" stroke-width="2.57" stroke-linejoin="bevel" points="1951.39,356.674 1951.39,300.295"/>
<polyline class="Stem" fill="none" stroke="#000000" stroke-width="2.57" stroke-linejoin="bevel" points="2084.25,356.674 2084.25,300.295"/>
<polyline class="Stem" fill="none" stroke="#000000" stroke-width="2.57" stroke-linejoin="bevel" points="2217.1,356.674 2217.1,300.295"/>
<polyline class="Stem" fill="none" stroke="#000000" stroke-width="2.57" stroke-linejoin="bevel" points="2349.95,356.674 2349.95,300.295"/>
<polyline class="Stem" fill="none" stroke="#000000" stroke-width="2.57" stroke-linejoin="bevel" points="2482.81,356.674 2482.81,300.295"/>
<polyline class="Stem" fill="none" stroke="#000000" stroke-width="2.57" stroke-linejoin="bevel" points="2615.66,356.674 2615.66,300.295"/>
<path class="Note" transform="matrix(0.935433,0,0,0.935433,559.128,458.15)" d="M31.5,-8.09375 C29.7031,-11.4063 25.9063,-13.2031 21.2969,-13.2031 C17.9063,-13.2031 14.2031,-12.2031 10.5938,-10.2969 C4,-6.79688 0,-0.90625 0,4.20313 C0,5.59375 0.296875,7 1,8.29688 C2.79688,11.5938 6.59375,13.2969 11.2031,13.2969 C14.5938,13.2969 18.2969,12.4063 21.9063,10.5 C28.5,7 32.5,1.09375 32.5,-4 C32.5,-5.40625 32.2031,-6.79688 31.5,-8.09375"/>
<path class="Note" transform="matrix(0.935433,0,0,0.935433,824.837,458.15)" d="M31.5,-8.09375 C29.7031,-11.4063 25.9063,-13.2031 21.2969,-13.2031 C17.9063,-13.2031 14.2031,-12.2031 10.5938,-10.2969 C4,-6.79688 0,-0.90625 0,4.20313 C0,5.59375 0.296875,7 1,8.29688 C2.79688,11.5938 6.59375,13.2969 11.2031,13.2969 C14.5938,13.2969 18.2969,12.4063 21.9063,10.5 C28.5,7 32.5,1.09375 32.5,-4 C32.5,-5.40625 32.2031,-6.79688 31.5,-8.09375"/>
<path class="Note" transform="matrix(0.935433,0,0,0.935433,824.837,411.378)" d="M31.5,-8.09375 C29.7031,-11.4063 25.9063,-13.2031 21.2969,-13.2031 C17.9063,-13.2031 14.2031,-12.2031 10.5938,-10.2969 C4,-6.79688 0,-0.90625 0,4.20313 C0,5.59375 0.296875,7 1,8.29688 C2.79688,11.5938 6.59375,13.2969 11.2031,13.2969 C14.5938,13.2969 18.2969,12.4063 21.9063,10.5 C28.5,7 32.5,1.09375 32.5,-4 C32.5,-5.40625 32.2031,-6.79688 31.5,-8.09375"/>
<path class="Note" transform="matrix(0.935433,0,0,0.935433,1090.55,458.15)" d="M31.5,-8.09375 C29.7031,-11.4063 25.9063,-13.2031 21.2969,-13.2031 C17.9063,-13.2031 14.2031,-12.2031 10.5938,-10.2969 C4,-6.79688 0,-0.90625 0,4.20313 C0,5.59375 0.296875,7 1,8.29688 C2.79688,11.5938 6.59375,13.2969 11.2031,13.2969 C14.5938,13.2969 18.2969,12.4063 21.9063,10.5 C28.5,7 32.5,1.09375 32.5,-4 C32.5,-5.40625 32.2031,-6.79688 31.5,-8.09375"/>
<path class="Note" transform="matrix(0.935433,0,0,0.935433,1356.25,458.15)" d="M31.5,-8.09375 C29.7031,-11.4063 25.9063,-13.2031 21.2969,-13.2031 C17.9063,-13.2031 14.2031,-12.2031 10.5938,-10.2969 C4,-6.79688 0,-0.90625 0,4.20313 C0,5.59375 0.296875,7 1,8.29688 C2.79688,11.5938 6.59375,13.2969 11.2031,13.2969 C14.5938,13.2969 18.2969,12.4063 21.9063,10.5 C28.5,7 32.5,1.09375 32.5,-4 C32.5,-5.40625 32.2031,-6.79688 31.5,-8.09375"/>
<path class="Note" transform="matrix(0.935433,0,0,0.935433,1356.25,411.378)" d="M31.5,-8.09375 C29.7031,-11.4063 25.9063,-13.2031 21.2969,-13.2031 C17.9063,-13.2031 14.2031,-12.2031 10.5938,-10.2969 C4,-6.79688 0,-0.90625 0,4.20313 C0,5.59375 0.296875,7 1,8.29688 C2.79688,11.5938 6.59375,13.2969 11.2031,13.2969 C14.5938,13.2969 18.2969,12.4063 21.9063,10.5 C28.5,7 32.5,1.09375 32.5,-4 C32.5,-5.40625 32.2031,-6.79688 31.5,-8.09375"/>
<path class="Note" transform="matrix(0.935433,0,0,0.935433,1489.11,458.15)" d="M31.5,-8.09375 C29.7031,-11.4063 25.9063,-13.2031 21.2969,-13.2031 C17.9063,-13.2031 14.2031,-12.2031 10.5938,-10.2969 C4,-6.79688 0,-0.90625 0,4.20313 C0,5.59375 0.296875,7 1,8.29688 C2.79688,11.5938 6.59375,13.2969 11.2031,13.2969 C14.5938,13.2969 18.2969,12.4063 21.9063,10.5 C28.5,7 32.5,1.09375 32.5,-4 C32.5,-5.40625 32.2031,-6.79688 31.5,-8.09375"/>
<path class="Note" transform="matrix(0.935433,0,0,0.935433,1656.57,458.15)" d="M31.5,-8.09375 C29.7031,-11.4063 25.9063,-13.2031 21.2969,-13.2031 C17.9063,-13.2031 14.2031,-12.2031 10.5938,-10.2969 C4,-6.79688 0,-0.90625 0,4.20313 C0,5.59375 0.296875,7 1,8.29688 C2.79688,11.5938 6.59375,13.2969 11.2031,13.2969 C14.5938,13.2969 18.2969,12.4063 21.9063,10.5 C28.5,7 32.5,1.09375 32.5,-4 C32.5,-5.40625 32.2031,-6.79688 31.5,-8.09375"/>
<path class="Note" transform="matrix(0.935433,0,0,0.935433,1922.28,458.15)" d="M31.5,-8.09375 C29.7031,-11.4063 25.9063,-13.2031 21.2969,-13.2031 C17.9063,-13.2031 14.2031,-12.2031 10.5938,-10.2969 C4,-6.79688 0,-0.90625 0,4.20313 C0,5.59375 0.296875,7 1,8.29688 C2.79688,11.5938 6.59375,13.2969 11.2031,13.2969 C14.5938,13.2969 18.2969,12.4063 21.9063,10.5 C28.5,7 32.5,1.09375 32.5,-4 C32.5,-5.40625 32.2031,-6.79688 31.5,-8.09375"/>
<path class="Note" transform="matrix(0.935433,0,0,0.935433,1922.28,411.378)" d="M31.5,-8.09375 C29.7031,-11.4063 25.9063,-13.2031 21.2969,-13.2031 C17.9063,-13.2031 14.2031,-12.2031 10.5938,-10.2969 C4,-6.79688 0,-0.90625 0,4.20313 C0,5.59375 0.296875,7 1,8.29688 C2.79688,11.5938 6.59375,13.2969 11.2031,13.2969 C14.5938,13.2969 18.2969,12.4063 21.9063,10.5 C28.5,7 32.5,1.09375 32.5,-4 C32.5,-5.40625 32.2031,-6.79688 31.5,-8.09375"/>
<path class="Note" transform="matrix(0.935433,0,0,0.935433,2187.99,458.15)" d="M31.5,-8.09375 C29.7031,-11.4063 25.9063,-13.2031 21.2969,-13.2031 C17.9063,-13.2031 14.2031,-12.2031 10.5938,-10.2969 C4,-6.79688 0,-0.90625 0,4.20313 C0,5.59375 0.296875,7 1,8.29688 C2.79688,11.5938 6.59375,13.2969 11.2031,13.2969 C14.5938,13.2969 18.2969,12.4063 21.9063,10.5 C28.5,7 32.5,1.09375 32.5,-4 C32.5,-5.40625 32.2031,-6.79688 31.5,-8.09375"/>
<path class="Note" transform="matrix(0.935433,0,0,0.935433,2320.85,411.378)" d="M31.5,-8.09375 C29.7031,-11.4063 25.9063,-13.2031 21.2969,-13.2031 C17.9063,-13.2031 14.2031,-12.2031 10.5938,-10.2969 C4,-6.79688 0,-0.90625 0,4.20313 C0,5.59375 0.296875,7 1,8.29688 C2.79688,11.5938 6.59375,13.2969 11.2031,13.2969 C14.5938,13.2969 18.2969,12.4063 21.9063,10.5 C28.5,7 32.5,1.09375 32.5,-4 C32.5,-5.40625 32.2031,-6.79688 31.5,-8.09375"/>
<path class="Note" transform="matrix(0.935433,0,0,0.935433,2453.7,458.15)" d="M31.5,-8.09375 C29.7031,-11.4063 25.9063,-13.2031 21.2969,-13.2031 C17.9063,-13.2031 14.2031,-12.2031 10.5938,-10.2969 C4,-6.79688 0,-0.90625 0,4.20313 C0,5.59375 0.296875,7 1,8.29688 C2.79688,11.5938 6.59375,13.2969 11.2031,13.2969 C14.5938,13.2969 18.2969,12.4063 21.9063,10.5 C28.5,7 32.5,1.09375 32.5,-4 C32.5,-5.40625 32.2031,-6.79688 31.5,-8.09375"/>
<path class="Note" transform="matrix(0.935433,0,0,0.935433,2453.7,411.378)" d="M31.5,-8.09375 C29.7031,-11.4063 25.9063,-13.2031 21.2969,-13.2031 C17.9063,-13.2031 14.2031,-12.2031 10.5938,-10.2969 C4,-6.79688 0,-0.90625 0,4.20313 C0,5.59375 0.296875,7 1,8.29688 C2.79688,11.5938 6.59375,13.2969 11.2031,13.2969 C14.5938,13.2969 18.2969,12.4063 21.9063,10.5 C28.5,7 32.5,1.09375 32.5,-4 C32.5,-5.40625 32.2031,-6.79688 31.5,-8.09375"/>
<path class="Note" transform="matrix(0.935433,0,0,0.935433,2586.55,458.15)" d="M31.5,-8.09375 C29.7031,-11.4063 25.9063,-13.2031 21.2969,-13.2031 C17.9063,-13.2031 14.2031,-12.2031 10.5938,-10.2969 C4,-6.79688 0,-0.90625 0,4.20313 C0,5.59375 0.296875,7 1,8.29688 C2.79688,11.5938 6.59375,13.2969 11.2031,13.2969 C14.5938,13.2969 18.2969,12.4063 21.9063,10.5 C28.5,7 32.5,1.09375 32.5,-4 C32.5,-5.40625 32.2031,-6.79688 31.5,-8.09375"/>
<path class="Note" transform="matrix(0.935433,0,0,0.935433,559.128,364.606)" d="M19.7969,0 L32,-9.59375 C32.2969,-9.79688 32.5,-10.2031 32.5,-10.5938 L32.5,-10.7031 C32.5,-11.0938 32.2969,-11.4063 32.1094,-11.5938 L30.9063,-12.7969 C30.6094,-13 30.2969,-13.2031 29.9063,-13.2031 C29.6094,-13.2031 29.2031,-13.0938 29,-12.9063 L16.2969,-2.79688 L3.5,-12.9063 C3.29688,-13.0938 2.90625,-13.2031 2.59375,-13.2031 C2.20313,-13.2031 2,-13 1.70313,-12.7969 L0.40625,-11.5938 C0.203125,-11.4063 0,-11 0,-10.5938 C0,-10.2031 0.203125,-9.79688 0.5,-9.59375 L12.7031,0 L0.5,9.59375 C0.203125,9.79688 0,10.2031 0,10.5938 C0,10.9063 0.203125,11.2969 0.40625,11.5 L1.59375,12.7969 C1.79688,13.0938 2.20313,13.2031 2.59375,13.2031 C2.90625,13.2031 3.29688,13.0938 3.5,12.9063 L16.2969,2.79688 L29,12.9063 C29.2031,13.0938 29.6094,13.2031 29.9063,13.2031 C30.2969,13.2031 30.7031,13.0938 30.9063,12.7969 L32.1094,11.5 C32.2969,11.2969 32.5,10.9063 32.5,10.5938 C32.5,10.2031 32.2969,9.79688 32,9.59375 L19.7969,0 "/>
<path class="Note" transform="matrix(0.935433,0,0,0.935433,691.983,364.606)" d="M19.7969,0 L32,-9.59375 C32.2969,-9.79688 32.5,-10.2031 32.5,-10.5938 L32.5,-10.7031 C32.5,-11.0938 32.2969,-11.4063 32.1094,-11.5938 L30.9063,-12.7969 C30.6094,-13 30.2969,-13.2031 29.9063,-13.2031 C29.6094,-13.2031 29.2031,-13.0938 29,-12.9063 L16.2969,-2.79688 L3.5,-12.9063 C3.29688,-13.0938 2.90625,-13.2031 2.59375,-13.2031 C2.20313,-13.2031 2,-13 1.70313,-12.7969 L0.40625,-11.5938 C0.203125,-11.4063 0,-11 0,-10.5938 C0,-10.2031 0.203125,-9.79688 0.5,-9.59375 L12.7031,0 L0.5,9.59375 C0.203125,9.79688 0,10.2031 0,10.5938 C0,10.9063 0.203125,11.2969 0.40625,11.5 L1.59375,12.7969 C1.79688,13.0938 2.20313,13.2031 2.59375,13.2031 C2.90625,13.2031 3.29688,13.0938 3.5,12.9063 L16.2969,2.79688 L29,12.9063 C29.2031,13.0938 29.6094,13.2031 29.9063,13.2031 C30.2969,13.2031 30.7031,13.0938 30.9063,12.7969 L32.1094,11.5 C32.2969,11.2969 32.5,10.9063 32.5,10.5938 C32.5,10.2031 32.2969,9.79688 32,9.59375 L19.7969,0 "/>
<path class="Note" transform="matrix(0.935433,0,0,0.935433,824.837,364.606)" d="M19.7969,0 L32,-9.59375 C32.2969,-9.79688 32.5,-10.2031 32.5,-10.5938 L32.5,-10.7031 C32.5,-11.0938 32.2969,-11.4063 32.1094,-11.5938 L30.9063,-12.7969 C30.6094,-13 30.2969,-13.2031 29.9063,-13.2031 C29.6094,-13.2031 29.2031,-13.0938 29,-12.9063 L16.2969,-2.79688 L3.5,-12.9063 C3.29688,-13.0938 2.90625,-13.2031 2.59375,-13.2031 C2.20313,-13.2031 2,-13 1.70313,-12.7969 L0.40625,-11.5938 C0.203125,-11.4063 0,-11 0,-10.5938 C0,-10.2031 0.203125,-9.79688 0.5,-9.59375 L12.7031,0 L0.5,9.59375 C0.203125,9.79688 0,10.2031 0,10.5938 C0,10.9063 0.203125,11.2969 0.40625,11.5 L1.59375,12.7969 C1.79688,13.0938 2.20313,13.2031 2.59375,13.2031 C2.90625,13.2031 3.29688,13.0938 3.5,12.9063 L16.2969,2.79688 L29,12.9063 C29.2031,13.0938 29.6094,13.2031 29.9063,13.2031 C30.2969,13.2031 30.7031,13.0938 30.9063,12.7969 L32.1094,11.5 C32.2969,11.2969 32.5,10.9063 32.5,10.5938 C32.5,10.2031 32.2969,9.79688 32,9.59375 L19.7969,0 "/>
<path class="Note" transform="matrix(0.935433,0,0,0.935433,957.691,364.606)" d="M19.7969,0 L32,-9.59375 C32.2969,-9.79688 32.5,-10.2031 32.5,-10.5938 L32.5,-10.7031 C32.5,-11.0938 32.2969,-11.4063 32.1094,-11.5938 L30.9063,-12.7969 C30.6094,-13 30.2969,-13.2031 29.9063,-13.2031 C29.6094,-13.2031 29.2031,-13.0938 29,-12.9063 L16.2969,-2.79688 L3.5,-12.9063 C3.29688,-13.0938 2.90625,-13.2031 2.59375,-13.2031 C2.20313,-13.2031 2,-13 1.70313,-12.7969 L0.40625,-11.5938 C0.203125,-11.4063 0,-11 0,-10.5938 C0,-10.2031 0.203125,-9.79688 0.5,-9.59375 L12.7031,0 L0.5,9.59375 C0.203125,9.79688 0,10.2031 0,10.5938 C0,10.9063 0.203125,11.2969 0.40625,11.5 L1.59375,12.7969 C1.79688,13.0938 2.20313,13.2031 2.59375,13.2031 C2.90625,13.2031 3.29688,13.0938 3.5,12.9063 L16.2969,2.79688 L29,12.9063 C29.2031,13.0938 29.6094,13.2031 29.9063,13.2031 C30.2969,13.2031 30.7031,13.0938 30.9063,12.7969 L32.1094,11.5 C32.2969,11.2969 32.5,10.9063 32.5,10.5938 C32.5,10.2031 32.2969,9.79688 32,9.59375 L19.7969,0 "/>
<path class="Note" transform="matrix(0.935433,0,0,0.935433,1090.55,364.606)" d="M19.7969,0 L32,-9.59375 C32.2969,-9.79688 32.5,-10.2031 32.5,-10.5938 L32.5,-10.7031 C32.5,-11.0938 32.2969,-11.4063 32.1094,-11.5938 L30.9063,-12.7969 C30.6094,-13 30.2969,-13.2031 29.9063,-13.2031 C29.6094,-13.2031 29.2031,-13.0938 29,-12.9063 L16.2969,-2.79688 L3.5,-12.9063 C3.29688,-13.0938 2.90625,-13.2031 2.59375,-13.2031 C2.20313,-13.2031 2,-13 1.70313,-12.7969 L0.40625,-11.5938 C0.203125,-11.4063 0,-11 0,-10.5938 C0,-10.2031 0.203125,-9.79688 0.5,-9.59375 L12.7031,0 L0.5,9.59375 C0.203125,9.79688 0,10.2031 0,10.5938 C0,10.9063 0.203125,11.2969 0.40625,11.5 L1.59375,12.7969 C1.79688,13.0938 2.20313,13.2031 2.59375,13.2031 C2.90625,13.2031 3.29688,13.0938 3.5,12.9063 L16.2969,2.79688 L29,12.9063 C29.2031,13.0938 29.6094,13.2031 29.9063,13.2031 C30.2969,13.2031 30.7031,13.0938 30.9063,12.7969 L32.1094,11.5 C32.2969,11.2969 32.5,10.9063 32.5,10.5938 C32.5,10.2031 32.2969,9.79688 32,9.59375 L19.7969,0 "/>
<path class="Note" transform="matrix(0.935433,0,0,0.935433,1223.4,364.606)" d="M19.7969,0 L32,-9.59375 C32.2969,-9.79688 32.5,-10.2031 32.5,-10.5938 L32.5,-10.7031 C32.5,-11.0938 32.2969,-11.4063 32.1094,-11.5938 L30.9063,-12.7969 C30.6094,-13 30.2969,-13.2031 29.9063,-13.2031 C29.6094,-13.2031 29.2031,-13.0938 29,-12.9063 L16.2969,-2.79688 L3.5,-12.9063 C3.29688,-13.0938 2.90625,-13.2031 2.59375,-13.2031 C2.20313,-13.2031 2,-13 1.70313,-12.7969 L0.40625,-11.5938 C0.203125,-11.4063 0,-11 0,-10.5938 C0,-10.2031 0.203125,-9.79688 0.5,-9.59375 L12.7031,0 L0.5,9.59375 C0.203125,9.79688 0,10.2031 0,10.5938 C0,10.9063 0.203125,11.2969 0.40625,11.5 L1.59375,12.7969 C1.79688,13.0938 2.20313,13.2031 2.59375,13.2031 C2.90625,13.2031 3.29688,13.0938 3.5,12.9063 L16.2969,2.79688 L29,12.9063 C29.2031,13.0938 29.6094,13.2031 29.9063,13.2031 C30.2969,13.2031 30.7031,13.0938 30.9063,12.7969 L32.1094,11.5 C32.2969,11.2969 32.5,10.9063 32.5,10.5938 C32.5,10.2031 32.2969,9.79688 32,9.59375 L19.7969,0 "/>
<path class="Note" transform="matrix(0.935433,0,0,0.935433,1356.25,364.606)" d="M19.7969,0 L32,-9.59375 C32.2969,-9.79688 32.5,-10.2031 32.5,-10.5938 L32.5,-10.7031 C32.5,-11.0938 32.2969,-11.4063 32.1094,-11.5938 L30.9063,-12.7969 C30.6094,-13 30.2969,-13.2031 29.9063,-13.2031 C29.6094,-13.2031 29.2031,-13.0938 29,-12.9063 L16.2969,-2.79688 L3.5,-12.9063 C3.29688,-13.0938 2.90625,-13.2031 2.59375,-13.2031 C2.20313,-13.2031 2,-13 1.70313,-12.7969 L0.40625,-11.5938 C0.203125,-11.4063 0,-11 0,-10.5938 C0,-10.2031 0.203125,-9.79688 0.5,-9.59375 L12.7031,0 L0.5,9.59375 C0.203125,9.79688 0,10.2031 0,10.5938 C0,10.9063 0.203125,11.2969 0.40625,11.5 L1.59375,12.7969 C1.79688,13.0938 2.20313,13.2031 2.59375,13.2031 C2.90625,13.2031 3.29688,13.0938 3.5,12.9063 L16.2969,2.79688 L29,12.9063 C29.2031,13.0938 29.6094,13.2031 29.9063,13.2031 C30.2969,13.2031 30.7031,13.0938 30.9063,12.7969 L32.1094,11.5 C32.2969,11.2969 32.5,10.9063 32.5,10.5938 C32.5,10.2031 32.2969,9.79688 32,9.59375 L19.7969,0 "/>
<path class="Note" transform="matrix(0.935433,0,0,0.935433,1489.11,364.606)" d="M19.7969,0 L32,-9.59375 C32.2969,-9.79688 32.5,-10.2031 32.5,-10.5938 L32.5,-10.7031 C32.5,-11.0938 32.2969,-11.4063 32.1094,-11.5938 L30.9063,-12.7969 C30.6094,-13 30.2969,-13.2031 29.9063,-13.2031 C29.6094,-13.2031 29.2031,-13.0938 29,-12.9063 L16.2969,-2.79688 L3.5,-12.9063 C3.29688,-13.0938 2.90625,-13.2031 2.59375,-13.2031 C2.20313,-13.2031 2,-13 1.70313,-12.7969 L0.40625,-11.5938 C0.203125,-11.4063 0,-11 0,-10.5938 C0,-10.2031 0.203125,-9.79688 0.5,-9.59375 L12.7031,0 L0.5,9.59375 C0.203125,9.79688 0,10.2031 0,10.5938 C0,10.9063 0.203125,11.2969 0.40625,11.5 L1.59375,12.7969 C1.79688,13.0938 2.20313,13.2031 2.59375,13.2031 C2.90625,13.2031 3.29688,13.0938 3.5,12.9063 L16.2969,2.79688 L29,12.9063 C29.2031,13.0938 29.6094,13.2031 29.9063,13.2031 C30.2969,13.2031 30.7031,13.0938 30.9063,12.7969 L32.1094,11.5 C32.2969,11.2969 32.5,10.9063 32.5,10.5938 C32.5,10.2031 32.2969,9.79688 32,9.59375 L19.7969,0 "/>
<path class="Note" transform="matrix(0.935433,0,0,0.935433,1656.57,364.606)" d="M19.7969,0 L32,-9.59375 C32.2969,-9.79688 32.5,-10.2031 32.5,-10.5938 L32.5,-10.7031 C32.5,-11.0938 32.2969,-11.4063 32.1094,-11.5938 L30.9063,-12.7969 C30.6094,-13 30.2969,-13.2031 29.9063,-13.2031 C29.6094,-13.2031 29.2031,-13.0938 29,-12.9063 L16.2969,-2.79688 L3.5,-12.9063 C3.29688,-13.0938 2.90625,-13.2031 2.59375,-13.2031 C2.20313,-13.2031 2,-13 1.70313,-12.7969 L0.40625,-11.5938 C0.203125,-11.4063 0,-11 0,-10.5938 C0,-10.2031 0.203125,-9.79688 0.5,-9.59375 L12.7031,0 L0.5,9.59375 C0.203125,9.79688 0,10.2031 0,10.5938 C0,10.9063 0.203125,11.2969 0.40625,11.5 L1.59375,12.7969 C1.79688,13.0938 2.20313,13.2031 2.59375,13.2031 C2.90625,13.2031 3.29688,13.0938 3.5,12.9063 L16.2969,2.79688 L29,12.9063 C29.2031,13.0938 29.6094,13.2031 29.9063,13.2031 C30.2969,13.2031 30.7031,13.0938 30.9063,12.7969 L32.1094,11.5 C32.2969,11.2969 32.5,10.9063 32.5,10.5938 C32.5,10.2031 32.2969,9.79688 32,9.59375 L19.7969,0 "/>
<path class="Note" transform="matrix(0.935433,0,0,0.935433,1789.43,364.606)" d="M19.7969,0 L32,-9.59375 C32.2969,-9.79688 32.5,-10.2031 32.5,-10.5938 L32.5,-10.7031 C32.5,-11.0938 32.2969,-11.4063 32.1094,-11.5938 L30.9063,-12.7969 C30.6094,-13 30.2969,-13.2031 29.9063,-13.2031 C29.6094,-13.2031 29.2031,-13.0938 29,-12.9063 L16.2969,-2.79688 L3.5,-12.9063 C3.29688,-13.0938 2.90625,-13.2031 2.59375,-13.2031 C2.20313,-13.2031 2,-13 1.70313,-12.7969 L0.40625,-11.5938 C0.203125,-11.4063 0,-11 0,-10.5938 C0,-10.2031 0.203125,-9.79688 0.5,-9.59375 L12.7031,0 L0.5,9.59375 C0.203125,9.79688 0,10.2031 0,10.5938 C0,10.9063 0.203125,11.2969 0.40625,11.5 L1.59375,12.7969 C1.79688,13.0938 2.20313,13.2031 2.59375,13.2031 C2.90625,13.2031 3.29688,13.0938 3.5,12.9063 L16.2969,2.79688 L29,12.9063 C29.2031,13.0938 29.6094,13.2031 29.9063,13.2031 C30.2969,13.2031 30.7031,13.0938 30.9063,12.7969 L32.1094,11.5 C32.2969,11.2969 32.5,10.9063 32.5,10.5938 C32.5,10.2031 32.2969,9.79688 32,9.59375 L19.7969,0 "/>
<path class="Note" transform="matrix(0.935433,0,0,0.935433,1922.28,364.606)" d="M19.7969,0 L32,-9.59375 C32.2969,-9.79688 32.5,-10.2031 32.5,-10.5938 L32.5,-10.7031 C32.5,-11.0938 32.2969,-11.4063 32.1094,-11.5938 L30.9063,-12.7969 C30.6094,-13 30.2969,-13.2031 29.9063,-13.2031 C29.6094,-13.2031 29.2031,-13.0938 29,-12.9063 L16.2969,-2.79688 L3.5,-12.9063 C3.29688,-13.0938 2.90625,-13.2031 2.59375,-13.2031 C2.20313,-13.2031 2,-13 1.70313,-12.7969 L0.40625,-11.5938 C0.203125,-11.4063 0,-11 0,-10.5938 C0,-10.2031 0.203125,-9.79688 0.5,-9.59375 L12.7031,0 L0.5,9.59375 C0.203125,9.79688 0,10.2031 0,10.5938 C0,10.9063 0.203125,11.2969 0.40625,11.5 L1.59375,12.7969 C1.79688,13.0938 2.20313,13.2031 2.59375,13.2031 C2.90625,13.2031 3.29688,13.0938 3.5,12.9063 L16.2969,2.79688 L29,12.9063 C29.2031,13.0938 29.6094,13.2031 29.9063,13.2031 C30.2969,13.2031 30.7031,13.0938 30.9063,12.7969 L32.1094,11.5 C32.2969,11.2969 32.5,10.9063 32.5,10.5938 C32.5,10.2031 32.2969,9.79688 32,9.59375 L19.7969,0 "/>
<path class="Note" transform="matrix(0.935433,0,0,0.935433,2055.14,364.606)" d="M19.7969,0 L32,-9.59375 C32.2969,-9.79688 32.5,-10.2031 32.5,-10.5938 L32.5,-10.7031 C32.5,-11.0938 32.2969,-11.4063 32.1094,-11.5938 L30.9063,-12.7969 C30.6094,-13 30.2969,-13.2031 29.9063,-13.2031 C29.6094,-13.2031 29.2031,-13.0938 29,-12.9063 L16.2969,-2.79688 L3.5,-12.9063 C3.29688,-13.0938 2.90625,-13.2031 2.59375,-13.2031 C2.20313,-13.2031 2,-13 1.70313,-12.7969 L0.40625,-11.5938 C0.203125,-11.4063 0,-11 0,-10.5938 C0,-10.2031 0.203125,-9.79688 0.5,-9.59375 L12.7031,0 L0.5,9.59375 C0.203125,9.79688 0,10.2031 0,10.5938 C0,10.9063 0.203125,11.2969 0.40625,11.5 L1.59375,12.7969 C1.79688,13.0938 2.20313,13.2031 2.59375,13.2031 C2.90625,13.2031 3.29688,13.0938 3.5,12.9063 L16.2969,2.79688 L29,12.9063 C29.2031,13.0938 29.6094,13.2031 29.9063,13.2031 C30.2969,13.2031 30.7031,13.0938 30.9063,12.7969 L32.1094,11.5 C32.2969,11.2969 32.5,10.9063 32.5,10.5938 C32.5,10.2031 32.2969,9.79688 32,9.59375 L19.7969,0 "/>
<path class="Note" transform="matrix(0.935433,0,0,0.935433,2187.99,364.606)" d="M19.7969,0 L32,-9.59375 C32.2969,-9.79688 32.5,-10.2031 32.5,-10.5938 L32.5,-10.7031 C32.5,-11.0938 32.2969,-11.4063 32.1094,-11.5938 L30.9063,-12.7969 C30.6094,-13 30.2969,-13.2031 29.9063,-13.2031 C29.6094,-13.2031 29.2031,-13.0938 29,-12.9063 L16.2969,-2.79688 L3.5,-12.9063 C3.29688,-13.0938 2.90625,-13.2031 2.59375,-13.2031 C2.20313,-13.2031 2,-13 1.70313,-12.7969 L0.40625,-11.5938 C0.203125,-11.4063 0,-11 0,-10.5938 C0,-10.2031 0.203125,-9.79688 0.5,-9.59375 L12.7031,0 L0.5,9.59375 C0.203125,9.79688 0,10.2031 0,10.5938 C0,10.9063 0.203125,11.2969 0.40625,11.5 L1.59375,12.7969 C1.79688,13.0938 2.20313,13.2031 2.59375,13.2031 C2.90625,13.2031 3.29688,13.0938 3.5,12.9063 L16.2969,2.79688 L29,12.9063 C29.2031,13.0938 29.6094,13.2031 29.9063,13.2031 C30.2969,13.2031 30.7031,13.0938 30.9063,12.7969 L32.1094,11.5 C32.2969,11.2969 32.5,10.9063 32.5,10.5938 C32.5,10.2031 32.2969,9.79688 32,9.59375 L19.7969,0 "/>
<path class="Note" transform="matrix(0.935433,0,0,0.935433,2320.85,364.606)" d="M19.7969,0 L32,-9.59375 C32.2969,-9.79688 32.5,-10.2031 32.5,-10.5938 L32.5,-10.7031 C32.5,-11.0938 32.2969,-11.4063 32.1094,-11.5938 L30.9063,-12.7969 C30.6094,-13 30.2969,-13.2031 29.9063,-13.2031 C29.6094,-13.2031 29.2031,-13.0938 29,-12.9063 L16.2969,-2.79688 L3.5,-12.9063 C3.29688,-13.0938 2.90625,-13.2031 2.59375,-13.2031 C2.20313,-13.2031 2,-13 1.70313,-12.7969 L0.40625,-11.5938 C0.203125,-11.4063 0,-11 0,-10.5938 C0,-10.2031 0.203125,-9.79688 0.5,-9.59375 L12.7031,0 L0.5,9.59375 C0.203125,9.79688 0,10.2031 0,10.5938 C0,10.9063 0.203125,11.2969 0.40625,11.5 L1.59375,12.7969 C1.79688,13.0938 2.20313,13.2031 2.59375,13.2031 C2.90625,13.2031 3.29688,13.0938 3.5,12.9063 L16.2969,2.79688 L29,12.9063 C29.2031,13.0938 29.6094,13.2031 29.9063,13.2031 C30.2969,13.2031 30.7031,13.0938 30.9063,12.7969 L32.1094,11.5 C32.2969,11.2969 32.5,10.9063 32.5,10.5938 C32.5,10.2031 32.2969,9.79688 32,9.59375 L19.7969,0 "/>
<path class="Note" transform="matrix(0.935433,0,0,0.935433,2453.7,364.606)" d="M19.7969,0 L32,-9.59375 C32.2969,-9.79688 32.5,-10.2031 32.5,-10.5938 L32.5,-10.7031 C32.5,-11.0938 32.2969,-11.4063 32.1094,-11.5938 L30.9063,-12.7969 C30.6094,-13 30.2969,-13.2031 29.9063,-13.2031 C29.6094,-13.2031 29.2031,-13.0938 29,-12.9063 L16.2969,-2.79688 L3.5,-12.9063 C3.29688,-13.0938 2.90625,-13.2031 2.59375,-13.2031 C2.20313,-13.2031 2,-13 1.70313,-12.7969 L0.40625,-11.5938 C0.203125,-11.4063 0,-11 0,-10.5938 C0,-10.2031 0.203125,-9.79688 0.5,-9.59375 L12.7031,0 L0.5,9.59375 C0.203125,9.79688 0,10.2031 0,10.5938 C0,10.9063 0.203125,11.2969 0.40625,11.5 L1.59375,12.7969 C1.79688,13.0938 2.20313,13.2031 2.59375,13.2031 C2.90625,13.2031 3.29688,13.0938 3.5,12.9063 L16.2969,2.79688 L29,12.9063 C29.2031,13.0938 29.6094,13.2031 29.9063,13.2031 C30.2969,13.2031 30.7031,13.0938 30.9063,12.7969 L32.1094,11.5 C32.2969,11.2969 32.5,10.9063 32.5,10.5938 C32.5,10.2031 32.2969,9.79688 32,9.59375 L19.7969,0 "/>
<path class="Note" transform="matrix(0.935433,0,0,0.935433,2586.55,364.606)" d="M19.7969,0 L32,-9.59375 C32.2969,-9.79688 32.5,-10.2031 32.5,-10.5938 L32.5,-10.7031 C32.5,-11.0938 32.2969,-11.4063 32.1094,-11.5938 L30.9063,-12.7969 C30.6094,-13 30.2969,-13.2031 29.9063,-13.2031 C29.6094,-13.2031 29.2031,-13.0938 29,-12.9063 L16.2969,-2.79688 L3.5,-12.9063 C3.29688,-13.0938 2.90625,-13.2031 2.59375,-13.2031 C2.20313,-13.2031 2,-13 1.70313,-12.7969 L0.40625,-11.5938 C0.203125,-11.4063 0,-11 0,-10.5938 C0,-10.2031 0.203125,-9.79688 0.5,-9.59375 L12.7031,0 L0.5,9.59375 C0.203125,9.79688 0,10.2031 0,10.5938 C0,10.9063 0.203125,11.2969 0.40625,11.5 L1.59375,12.7969 C1.79688,13.0938 2.20313,13.2031 2.59375,13.2031 C2.90625,13.2031 3.29688,13.0938 3.5,12.9063 L16.2969,2.79688 L29,12.9063 C29.2031,13.0938 29.6094,13.2031 29.9063,13.2031 C30.2969,13.2031 30.7031,13.0938 30.9063,12.7969 L32.1094,11.5 C32.2969,11.2969 32.5,10.9063 32.5,10.5938 C32.5,10.2031 32.2969,9.79688 32,9.59375 L19.7969,0 "/>
<path class="Clef" transform="matrix(0.935433,0,0,0.935433,348.236,423.071)" d="M12.2969,-25.2031 L1.29688,-25.2031 C0.59375,-25.2031 0,-24.5938 0,-23.9063 L0,23.9063 C0,24.5938 0.59375,25.2031 1.29688,25.2031 L12.2969,25.2031 C13,25.2031 13.5938,24.5938 13.5938,23.9063 L13.5938,-23.9063 C13.5938,-24.5938 13,-25.2031 12.2969,-25.2031 M33.9063,-25.2031 L22.9063,-25.2031 C22.2031,-25.2031 21.5938,-24.5938 21.5938,-23.9063 L21.5938,23.9063 C21.5938,24.5938 22.2031,25.2031 22.9063,25.2031 L33.9063,25.2031 C34.6094,25.2031 35.2031,24.5938 35.2031,23.9063 L35.2031,-23.9063 C35.2031,-24.5938 34.6094,-25.2031 33.9063,-25.2031"/>
<path class="TimeSig" transform="matrix(0.935433,0,0,0.935433,403.259,399.809)" d="M3.59375,12.625 L20.7656,12.625 L20.7656,20.0781 L12.5469,20.0781 C11.7656,20.0781 11.125,20.7031 11.125,21.4844 L11.125,23.3906 C11.125,24.1719 11.7656,24.7969 12.5469,24.7969 L42.7969,24.7969 C43.5781,24.7969 44.2031,24.1719 44.2031,23.3906 L44.2031,21.4844 C44.2031,20.7031 43.5781,20.0781 42.7969,20.0781 L33.8594,20.0781 L33.8594,12.625 L42.7969,12.625 C43.5781,12.625 44.2031,12 44.2031,11.2188 L44.2031,9.3125 C44.2031,8.53125 43.5781,7.90625 42.7969,7.90625 L33.8594,7.90625 L33.8594,-8.0625 C33.8594,-8.59375 33.5469,-9.07813 33.0781,-9.3125 L31.8594,-9.92188 C31.3281,-10.1719 30.7031,-10.0781 30.2656,-9.6875 L21.2188,-1.375 C20.9375,-1.09375 20.7656,-0.734375 20.7656,-0.328125 L20.7656,7.90625 L9.25,7.90625 C9.25,7.90625 20.375,-4.125 32.2188,-19.8906 C33.0781,-21.0469 32.5781,-22.0938 32.3906,-22.2813 L30.2188,-24.4844 C29.9531,-24.75 29.5938,-24.9063 29.2188,-24.9063 C28.625,-24.9063 15.0625,-24.875 14.3438,-24.9063 C13.625,-24.9219 13.0938,-24.2969 13.0156,-23.6875 C13.0156,-23.6875 12.4844,-16.3281 9.875,-8.1875 C7.28125,-0.078125 4.34375,4.90625 1.6875,8.53125 C1.6875,8.53125 1.14063,9.51563 1.5,10.2656 C1.84375,11.0156 2.48438,12.0938 2.48438,12.0938 C2.48438,12.0938 2.73438,12.625 3.59375,12.625"/>
<path class="TimeSig" transform="matrix(0.935433,0,0,0.935433,403.259,446.332)" d="M3.59375,12.625 L20.7656,12.625 L20.7656,20.0781 L12.5469,20.0781 C11.7656,20.0781 11.125,20.7031 11.125,21.4844 L11.125,23.3906 C11.125,24.1719 11.7656,24.7969 12.5469,24.7969 L42.7969,24.7969 C43.5781,24.7969 44.2031,24.1719 44.2031,23.3906 L44.2031,21.4844 C44.2031,20.7031 43.5781,20.0781 42.7969,20.0781 L33.8594,20.0781 L33.8594,12.625 L42.7969,12.625 C43.5781,12.625 44.2031,12 44.2031,11.2188 L44.2031,9.3125 C44.2031,8.53125 43.5781,7.90625 42.7969,7.90625 L33.8594,7.90625 L33.8594,-8.0625 C33.8594,-8.59375 33.5469,-9.07813 33.0781,-9.3125 L31.8594,-9.92188 C31.3281,-10.1719 30.7031,-10.0781 30.2656,-9.6875 L21.2188,-1.375 C20.9375,-1.09375 20.7656,-0.734375 20.7656,-0.328125 L20.7656,7.90625 L9.25,7.90625 C9.25,7.90625 20.375,-4.125 32.2188,-19.8906 C33.0781,-21.0469 32.5781,-22.0938 32.3906,-22.2813 L30.2188,-24.4844 C29.9531,-24.75 29.5938,-24.9063 29.2188,-24.9063 C28.625,-24.9063 15.0625,-24.875 14.3438,-24.9063 C13.625,-24.9219 13.0938,-24.2969 13.0156,-23.6875 C13.0156,-23.6875 12.4844,-16.3281 9.875,-8.1875 C7.28125,-0.078125 4.34375,4.90625 1.6875,8.53125 C1.6875,8.53125 1.14063,9.51563 1.5,10.2656 C1.84375,11.0156 2.48438,12.0938 2.48438,12.0938 C2.48438,12.0938 2.73438,12.625 3.59375,12.625"/>
<path class="Beam" fill-rule="evenodd" d="M1356.25,522.461 L1491.68,522.461 L1491.68,534.154 L1356.25,534.154 L1356.25,522.461 "/>
<path class="Beam" fill-rule="evenodd" d="M2187.99,516.614 L2589.13,516.614 L2589.13,528.307 L2187.99,528.307 L2187.99,516.614 "/>
<path class="Beam" fill-rule="evenodd" d="M586.95,294.449 L988.086,294.449 L988.086,306.142 L586.95,306.142 L586.95,294.449 "/>
<path class="Beam" fill-rule="evenodd" d="M1118.37,294.449 L1519.5,294.449 L1519.5,306.142 L1118.37,306.142 L1118.37,294.449 "/>
<path class="Beam" fill-rule="evenodd" d="M1684.4,294.449 L2085.53,294.449 L2085.53,306.142 L1684.4,306.142 L1684.4,294.449 "/>
<path class="Beam" fill-rule="evenodd" d="M2215.81,294.449 L2616.95,294.449 L2616.95,306.142 L2215.81,306.142 L2215.81,294.449 "/>
</svg>
